<?xml version="1.0" encoding="utf-8"?>
<!-- Generator: Adobe Illustrator 21.0.2, SVG Export Plug-In . SVG Version: 6.00 Build 0)  -->
<svg version="1.1" id="Calque_1" xmlns="http://www.w3.org/2000/svg" xmlns:xlink="http://www.w3.org/1999/xlink" x="0px" y="0px"
	 viewBox="0 0 2000 690.8" style="enable-background:new 0 0 2000 690.8;" xml:space="preserve">
<style type="text/css">
	.st0{fill:none;}
	.st1{fill:#FF0000;}
	.st2{fill:url(#SVGID_1_);}
	.st3{fill:url(#SVGID_2_);}
	.st4{fill:url(#SVGID_3_);}
	.st5{fill:url(#SVGID_4_);}
	.st6{fill:url(#SVGID_5_);}
	.st7{fill:url(#SVGID_6_);}
	.st8{fill:url(#SVGID_7_);}
	.st9{fill:url(#SVGID_8_);}
	.st10{fill:url(#SVGID_9_);}
	.st11{fill:url(#SVGID_10_);}
	.st12{fill:#FFFF00;}
</style>
<g>
	<path d="M1961.7,530.7h-4.1v-2.5h11.1v2.5h-4.1v11.1h-3V530.7z"/>
	<path d="M1970.4,528.2h4.2l3.2,9.3h0l3-9.3h4.2v13.6h-2.8v-9.6h0l-3.3,9.6h-2.3l-3.3-9.5h0v9.5h-2.8V528.2z"/>
</g>
<path d="M1999.8,320.8l-2.3-18.4c-1.8-14-13.7-24.3-27.5-24.3c-1,0-2.1,0.1-3.2,0.2c-13.4,1.5-24.9,4.7-34.6,8.9
	c-1.6-8.9-5.4-17-11.3-24.3c0-0.1-0.1-0.1-0.1-0.2c-6.4-7.8-14.5-13.7-24.2-17.5c-6.8-2.6-13.8-3.9-20.8-3.9c-2.4,0-4.8,0.2-7.2,0.5
	c-9.5,1.1-18.1,4.3-25.5,9.4c-3.3,2.3-6.4,5-9.3,8.3c-1.3-3.7-2.7-7.4-4.4-11c0-0.1,0-0.1-0.1-0.2c-6.7-14.6-16.1-27.9-27.9-39.4
	c-5.2-5.1-12.2-7.9-19.4-7.9c-2.1,0-4.3,0.2-6.4,0.8c-8.6,2-15.6,8-19.1,16.1c-3.2-6-7-11.7-11.4-17c-0.1-0.1-0.2-0.3-0.3-0.4
	c-7.3-8.5-15.8-15.6-25.4-21c-4.2-2.4-8.9-3.6-13.6-3.6c-3.5,0-7.1,0.7-10.5,2c-0.2,0.1-0.3,0.1-0.5,0.2l37-132.6l-165.3,79.8
	l-36.4-105.3l-132.7,188.6L1273.2,17.1L1095.5,128l-43.2-114.3L968.1,91l-33.5-37.7l-25.7,150L871.5,0L692.1,150.6L632.4,13.8
	L526.9,125.9l-40.6-83.4l-58.4,76.6L213.1,0.6l112.8,200.8c-1.9-1.3-3.8-2.6-5.8-3.8c0,0-0.1-0.1-0.1-0.1
	c-13.8-8.2-28.9-13.9-45.1-16.8c-1.6-0.3-3.3-0.4-4.9-0.4c-7.7,0-15.2,3.2-20.5,9c-1.6,1.8-3,3.7-4,5.7c-0.7-0.1-1.5-0.1-2.2-0.1
	c-2.8,0-5.5,0.4-8.3,1.3L199,207.6c-12.7,4-20.6,16.3-19.3,29.1c-11-4.8-23.1-8.4-36-10.7c-1.6-0.3-3.2-0.4-4.8-0.4
	c-8.1,0-15.9,3.6-21.2,9.9c-0.3,0.4-0.6,0.8-0.9,1.2c-2.8,0.2-5.5,0.9-8.2,2l-17.1,7c-3.5,1.4-6.6,3.5-9.2,6.2c-0.1,0-0.2,0-0.3,0
	c-3.5,0-7.1,0.7-10.6,2.1l-17.1,7c-4.3,1.8-8,4.6-10.9,8.1c-0.3,0-0.6,0-0.9,0c-1.6,0-3.3,0.1-4.9,0.4c-7.4,1.3-13.9,5.6-18.1,11.8
	C-2.3,313.6-5.9,348,9.1,380.7c3,6.5,6.5,12.5,10.5,17.9c0.1,0.1,0.1,0.1,0.2,0.2c3.3,4.5,7.6,9.6,13.1,15.6
	c0.1,0.1,0.1,0.2,0.2,0.2l33.1,35.9c0.1,0.1,0.1,0.2,0.2,0.2c3.8,4,6.5,8,8.5,12.4c3.3,7.3,5.9,17.6-3.8,33.5
	c-7.8,12.7-4.1,29.2,8.2,37.5l15.5,10.4c4.7,3.2,10.1,4.7,15.4,4.7c8.8,0,17.5-4.2,22.9-12.1c6-8.7,10.6-17.9,13.8-27.6
	c8.4,6.1,17.9,10.2,28.6,10.2c5.4,0,10.7-1.1,15.7-3.1c6.3-2.6,16.2-8.7,22.2-22c0.7,0,1.4,0.1,2,0.1c3.2,0,6.3-0.5,9.4-1.6
	l17.1-6.1c8.5-3.1,14.6-9.8,17.1-17.9c0.5,0.3,0.9,0.6,1.4,0.8c0.9,0.5,1.8,0.9,2.7,1.2l-70.6,121.5l360.8-122.9L533,653
	l106.2-186.9l50.6,196.5l232-166.2l104.7,144.1l76.5-142.2l182.6,155.6l64.2-181l99.7,162.6l55.9-151.9l70.1,207.3l23.7-152
	l147.1,34.3l-78.4-122.1c4.2-1.1,8.5-2.5,12.6-4.1c0.5,11.1,7.7,21.2,18.8,25l17.3,5.9c2.9,1,5.9,1.5,8.9,1.5c2,0,4-0.2,6-0.6
	c3.2,3.8,7.3,6.7,12.3,8.4l17.3,5.9c2.4,0.8,4.8,1.3,7.2,1.4c6.1,7.4,14.5,13.3,24.7,17.3c7.4,2.9,14.8,4.3,22.1,4.3
	c1.6,0,3.3-0.1,4.9-0.2c4.2,10.4,14.3,17.4,25.7,17.4c1,0,2-0.1,3-0.2c6.8-0.7,13.5-2,19.9-3.8c1.9,6.4,5.4,12.3,10.3,17.2
	c7.6,7.6,17.6,11.9,28.1,11.9c10.7,0,20.7-4.2,28.2-11.7c7.6-7.6,11.7-17.6,11.7-28.3c0-4.6-0.8-9.2-2.2-13.6
	c-0.2-0.5-0.4-1.1-0.6-1.6c-1.6-3.9-3.9-7.7-7.2-11.6c-2.4-2.8-5.1-5.1-8-7.1c2.2-3.6,4.2-7.4,5.9-11.4c5.7-12.9,9.1-27.3,10.2-42.8
	l4.1-49.5c0-0.1,0-0.2,0-0.3c0.5-6.3,1.6-11.5,3.3-15.5c1.2-2.8,4.4-10.2,24-13.1C1991.3,349.5,2001.7,335.7,1999.8,320.8z"/>
<g>
	<g>
		<path class="st0" d="M1149.2,347.5l3-4.5c-1.7-1.5-3.4-3-5-4.6c-8.5-8.4-15.1-18.1-20.1-29c-0.4-0.4-0.8-0.8-1.2-1.2
			c-2.7-3-5.3-6.1-7.7-9.4l28.7,52.3L1149.2,347.5z"/>
		<path class="st0" d="M1324.5,255.8c2.2,1.7,4.2,3.5,6.2,5.4l1.9-18.1l-7.7,12.1L1324.5,255.8z"/>
		<path class="st1" d="M1610.4,159.7l2.7-26.9l-28.8-0.3l-65.7-0.7l-23.8-0.2l-2.6,23.7l-8.1,74.2l-8.8-0.9l5.5-57.6l2.8-29
			l-23.2,0.1l2.6-27.3l-29.1,0.1l-64.3,0.3l-23.6,0.1l-2.4,23.5l-0.6,5.5l-10-7.2c-30.5-21.8-62.7-32.4-98.6-32.4
			c-5.2,0-10.6,0.2-16.1,0.7c-38.4,3.3-70.2,17.1-91.8,40.1c-22.4,23.8-32.6,55.4-29.5,91.4c1.2,14.2,4.2,27.1,8.9,38.8l-44.6-81.3
			c-2.1-3.8-5.1-7.1-8.6-9.4l-8.3-15.4l-24.3-45.1l-22.5,46.1L925.2,319l-67.3-175.8l0-0.1l0-0.1c-3.2-8.1-9.8-14-17.9-16.2
			l-1.9-4.8l-25.3-65.2l-23.9,65.7L737,264.7l-63.4-99.3l-0.1-0.1l-0.1-0.1c-3.1-4.8-7.5-8.4-12.5-10.7l-8.7-13.3L613.5,82l-9.3,70
			c-23.7-16.5-50.1-25.3-80.3-27c-2.9-0.2-5.9-0.2-8.8-0.2c-33.5,0-62.7,10.5-84.4,30.4c-21.8,19.9-34.2,47.3-35.9,79.3
			c-1.5,27.3,4.7,49.6,18.8,68.1c3.4,4.5,7.3,8.7,11.6,12.7c2.5,5,5.5,9.8,9,14.4c0.2,0.2,0.4,0.5,0.6,0.7l-5.4,6.4l-41.2,48.5
			l-15.3,18.1l16.4,17.1c2.3,2.4,4.6,4.6,6.9,6.8l-2.7,3.2l16.4,17.1c29.4,30.8,63.3,46.2,106.7,48.5c3.1,0.2,6.3,0.3,9.4,0.3
			c11.6,0,22.6-1.2,33-3.6l-0.1,0.9l24.1,0.7l-3.1,26.4l28.7,0.9l71.9,2.1l25.7,0.8l1.4-25.7l3.3-63.1l19.7,31c2.4,3.7,5.4,6.7,9,9
			l12.7,20c5.1,8.1,13.9,12.9,23.4,12.9c11.5,0,22-7.2,26-18l23.8-63.4l7.2,23.3l7.2,23.4l11.4-2.7l2,6.4l7.2,23.4l11.7-2.7
			l-4.2,9.1l31.3,7.5l64.1,15.3l21.9,5.2l8.5-20.8l18.4-45l60.1-0.9l7.6,15.6l9.2,18.9l6.6-1.5l4.8,9.8l9.2,18.9l20.5-4.8l66-15.6
			l17.5-4.1c8.5,1.3,17.2,1.9,26.3,1.9c5.8,0,11.8-0.3,17.9-0.8c33-2.8,61.5-13.6,83.7-31.4l19.5,0.1l65.9,0.4l24.1,0.2l2.3-23.9
			l7.9-82.8l8.8,0.8l-5.8,66l-2.4,27.9l22.9,0.6l-2.3,26.6l28,0.7l65.5,1.6l24.4,0.6l2.4-24.3l28.1-281.3l2.9-28.6L1610.4,159.7z
			 M1330.8,261.3c-2-1.9-4.1-3.7-6.2-5.4l0.4-0.6l7.7-12.1L1330.8,261.3z M1125.9,308.1c0.4,0.4,0.8,0.8,1.2,1.2
			c4.9,11,11.6,20.6,20.1,29c1.6,1.6,3.3,3.1,5,4.6l-3,4.5l-2.3,3.5l-28.7-52.3C1120.6,302,1123.2,305.2,1125.9,308.1z"/>
	</g>
	<g>
		<path d="M469.9,381c16.3,16.8,30.1,24.2,48.8,25.2c21,1.1,34.4-8.4,35.2-22.6c1.1-20.8-20.2-24.4-50.7-37.1
			c-44-17.9-63.8-41.5-61.5-83.5c2.8-52.6,42.2-87.7,101.4-84.5c32.7,1.8,59.8,13.4,84,36.4l-38.8,45.4
			c-13.7-14.6-27.7-21.9-44.5-22.9c-18.7-1-30.9,8.2-31.6,20.8c-1.2,21.6,21.4,24.1,54.6,37.3c39.8,15.6,60,46.2,57.9,85.8
			c-3,55.1-43.8,92-106.9,88.6c-36.2-2-64-14.1-89.1-40.4L469.9,381z"/>
		<path d="M650.8,182.8l112.1,171.3l71.2-195.4l114.4,294.8L878.2,470L834.5,328l-58.6,156.1L689,347.6l-7.9,150l-71.9-2.1
			L650.8,182.8z"/>
		<path d="M1041.7,209.3L1190,484.3l-66,15.6l-28.2-57.8l-101.4,1.6l-25,61.1l-64.1-15.3L1041.7,209.3z M1080.4,389.8l-36.9-66.7
			l-36.2,68.2L1080.4,389.8z"/>
		<path d="M1390.2,168.8l64.3-0.3l-10.4,108.6l83.8,8.3l11-100l65.7,0.7l-28.1,281.3l-65.5-1.6l10.3-117.5l-83.7-7.2l-10.4,108.7
			l-65.9-0.4L1390.2,168.8z"/>
		<path d="M1191.8,389c20.3,15.9,36.8,23.5,57.3,21.8c23.1-2,36.3-14.4,34.9-30c-1.9-22.8-25.7-23.5-61-32.7
			c-50.6-12.8-75.8-35.5-79.8-81.6c-4.9-57.8,32.7-102.1,97.7-107.6c35.9-3.1,67.3,5.5,97.1,26.9l-35.4,55.4
			c-17.1-13.9-33.6-19.7-52-18.1c-20.5,1.7-32.5,13.6-31.3,27.5c2,23.7,26.9,23,65.2,32.3c45.7,11,72.5,41.2,76.2,84.7
			c5.2,60.5-36.1,107.3-105.4,113.2c-39.8,3.4-72.2-5.5-103.6-30.4L1191.8,389z"/>
	</g>
	<g>
		<linearGradient id="SVGID_1_" gradientUnits="userSpaceOnUse" x1="507.3156" y1="139.0723" x2="507.3156" y2="486.9743">
			<stop  offset="0.2" style="stop-color:#FFFF00"/>
			<stop  offset="1" style="stop-color:#FF6400"/>
		</linearGradient>
		<path class="st2" d="M449.3,353.9c16.3,16.8,30.1,24.2,48.8,25.2c21,1.1,34.4-8.4,35.2-22.6c1.1-20.8-20.2-24.4-50.7-37.1
			c-44-17.9-63.8-41.5-61.5-83.5c2.8-52.6,42.2-87.7,101.4-84.5c32.7,1.8,59.8,13.4,84,36.4l-38.8,45.4
			c-13.7-14.6-27.7-21.9-44.5-22.9c-18.7-1-30.9,8.2-31.6,20.8c-1.2,21.6,21.4,24.1,54.6,37.3c39.8,15.6,60,46.2,57.9,85.8
			c-3,55.1-43.8,92-106.9,88.6c-36.2-2-64-14.1-89.1-40.4L449.3,353.9z"/>
		<linearGradient id="SVGID_2_" gradientUnits="userSpaceOnUse" x1="758.2685" y1="139.0723" x2="758.2685" y2="486.9743">
			<stop  offset="0.2" style="stop-color:#FFFF00"/>
			<stop  offset="1" style="stop-color:#FF6400"/>
		</linearGradient>
		<path class="st3" d="M630.3,155.6l112.1,171.3l71.2-195.4l114.4,294.8l-70.3,16.4l-43.8-141.9L755.3,457l-86.9-136.6l-7.9,150
			l-71.9-2.1L630.3,155.6z"/>
		<linearGradient id="SVGID_3_" gradientUnits="userSpaceOnUse" x1="1027.019" y1="139.0723" x2="1027.019" y2="486.9743">
			<stop  offset="0.2" style="stop-color:#FFFF00"/>
			<stop  offset="1" style="stop-color:#FF6400"/>
		</linearGradient>
		<path class="st4" d="M1021.1,182.2l148.3,274.9l-66,15.6l-28.2-57.8l-101.4,1.6l-25,61.1l-64.1-15.3L1021.1,182.2z M1059.8,362.6
			l-36.9-66.7l-36.2,68.2L1059.8,362.6z"/>
		<linearGradient id="SVGID_4_" gradientUnits="userSpaceOnUse" x1="1462.2767" y1="139.0723" x2="1462.2767" y2="486.9743">
			<stop  offset="0.2" style="stop-color:#FFFF00"/>
			<stop  offset="1" style="stop-color:#FF6400"/>
		</linearGradient>
		<path class="st5" d="M1369.6,141.6l64.3-0.3l-10.4,108.6l83.8,8.2l11-100l65.7,0.7l-28.1,281.3l-65.5-1.6l10.3-117.5l-83.7-7.2
			l-10.4,108.7l-65.9-0.4L1369.6,141.6z"/>
		<linearGradient id="SVGID_5_" gradientUnits="userSpaceOnUse" x1="1231.5304" y1="139.0723" x2="1231.5304" y2="486.9743">
			<stop  offset="0.2" style="stop-color:#FFFF00"/>
			<stop  offset="1" style="stop-color:#FF6400"/>
		</linearGradient>
		<path class="st6" d="M1171.2,361.9c20.3,15.9,36.8,23.5,57.3,21.8c23.1-2,36.3-14.4,34.9-30c-1.9-22.8-25.7-23.5-61-32.7
			c-50.6-12.8-75.8-35.5-79.8-81.6c-4.9-57.8,32.7-102.1,97.7-107.6c35.9-3.1,67.3,5.5,97.1,26.9l-35.4,55.4
			c-17.1-13.9-33.6-19.7-52-18.1c-20.5,1.7-32.5,13.6-31.3,27.5c2,23.7,26.9,23,65.2,32.3c45.7,11,72.5,41.2,76.2,84.7
			c5.2,60.5-36.1,107.3-105.4,113.2c-39.8,3.4-72.2-5.5-103.6-30.4L1171.2,361.9z"/>
	</g>
	<g>
		<linearGradient id="SVGID_6_" gradientUnits="userSpaceOnUse" x1="749.8262" y1="488.2851" x2="749.8262" y2="142.121">
			<stop  offset="0.2" style="stop-color:#FFFF01"/>
			<stop  offset="1" style="stop-color:#FFA800"/>
		</linearGradient>
		<path class="st7" d="M711.8,314.9l-4.6-4.2l-2.2,5.4l2.9,0.5c-0.4,3.5-5.1,4.5-7.8,5.3l-2.2-1.4l3.9-7.8l-5.2-2.8l-0.2,1.7
			l2.8,3.1l-1.4,1.5c-1.2,0.1-2-3.2-2.8-3.1l-0.4,0l-1.3,2.3l-3.2-3c-0.5-4.2,2.7-7.2,6.3-8.1l-0.5,2.2l1.2,0.3
			c1.2-0.1,1.5-0.6,1.4-1.5c-0.1-0.8-1.1-2-1.2-2.9c0,0,0,0-0.1-0.4l3.4-1.7l-0.8-2.9l-0.2,1.7l-5.8,2.4l-4.6-4.2l-4.8,3.6l-4.1-0.8
			l-0.2-4.7c0.8-0.1,1.2-0.1,2-0.2c4.4-0.5,8.5-3.2,12.3-5l-0.4-3.4l-4.7-2l-3,2.1l-4.2-4.6l-2.3,1.1l-4.9-3.3l0.7,2.1l-5.1-1.9
			l0.8-3.1l-11.8-3.7c-2.9,2.5-5.4,5.4-7.9,8.3l0.7,2.1l-2.7,0.8l-0.2,1.3l4.8,6.3l-5.2,3.7c0.8,0.3,2.2,1.4,2.4,2.7
			c0.1,0.4-0.3,0.9-0.7,0.9l2,3.2l-1.7,2.8l0.7,5.9l5.3,7.1l0,3l-1.6,0.2c-1.6,0.2-1.9,0.7-1.8,1.9c0.2,1.3,1.6,3.2,2.1,4
			c-0.3,0.9-1.7,2.4-2.9,2.5c-0.4,0-0.8,0.1-0.8-0.3l3,1.8c0.1,0.4,0.1,0.4,0.1,0.8c0.2,1.3-0.8,3.5-1.6,3.6c-0.4,0-0.4,0-0.8,0.1
			l0.4,3l1.4-1.5c1.2-0.1,2.1,0.6,2.2,1.4c0.1,0.4-0.3,0.9-0.3,0.9l-4,0.1l-0.4,3.1l8.7,1.9l-3,1.7l-2.1-0.6l-1.4,1.5l1.4,1.1
			l-0.8-0.3l-1.2-0.3l-4.2,1.8c1.5,2.4,5.9,2.3,8.4,2.4l-3.1,0.8c0.1,0.8,2.5,0.5,2.6,1.4c0.1,0.8-9.9,21-11.2,23.4l4.7-4.5
			c0.5,0.4,0.8,0.3,1.6,0.2c0.8-0.1,1.5-0.6,1.8-1.5l0.2,1.7c0.3,2.1,1,4.6,2.4,6.2c-0.4,0-0.4,0-0.3,0.5c0.1,0.8,0.6,1.6,1,1.6
			c0.4,0,0.7-0.5,1.1-1l2.5,3.6l-1.9,7.1l6.1,6.6l-3.1,1.2l-2.4,6.8l-1.1,1c0.1,0.8,3.7,0.4,4.1,0.4c0.1,0.4,0.1,0.4,0.1,0.4
			c0.1,0.8-2.2,1.6-2.5,2.9l2.6,1.4c0.1,0.4,0.1,0.4,0.1,0.8c0.2,1.3-0.4,3.1-2,3.3l4.3,8.5l-2.9-0.5l-1.2,3.2l-4.4,0.1
			c0.8,0.3,2.1,0.6,2.9,0.5c0.4,0,0.4,0,0.8-0.1c-0.3,0.9-0.2,1.7-0.1,2.6c0.3,2.5,1.5,5.4,2.9,7.4l-3.8-1.2l-0.7,0.5
			c2.4,3.1,2.9,7,4.9,10.2l4.6-4.9l2.5,3.6l-2.9,5.5l-1.6-0.2l-4,3.9l2.3,2.3l-2.4,0.3l-3.1,0.8l6.9,3.9l2.1,10.5l2.4-0.3l-0.4,3.1
			l1.8,1.5l-1.8,1.9l-8.4,1l-1.1-2l3.7-3l-1-1.2l-3.6,3.5l-1.6,0.2l-0.3,4.3c-3.7-0.8-7.3-3.8-8.7-8l-2.3,1.1l0.3-0.5l1-1.4
			c-0.2-1.3-7.5-2.1-8.4-2.4c0.3-0.5,1.5-1,2.7-1.2c0.4,0,0.8-0.1,1.2,0.3l-3.8-4.3l2.3-1.1l-3-1.3l-0.6-4.7c0.3-0.5,0.7-0.9,1.1-1
			c1.2-0.1,2,3.2,2.8,3.1l0.4,0l3.2-3.8c-0.5-3.8-4.8-5.9-7.7-6.8c-0.5-0.4-0.5-0.4-0.5-0.8c-0.2-1.3,1.7-2.8,2.5-2.9l-2.6-4.8
			l-2.9,2.5l-0.6-1.6c-0.4,0-0.4,0-0.4,0c-0.8,0.1-1.5,1-1.9,1.1c-0.4,0-0.8-0.3-1-1.6c0,0-0.1-0.4,0.3-0.5c0.4,0,1.7,0.6,2.5,0.5
			l3.2-3.4l-0.5-3.8l-3.4,1.7l-2.6-1.4l4.7-4.5c-0.1-0.4-0.1-0.4-0.1-0.8c-0.1-0.8-1.4-1.5-2.2-1.4c-0.4,0-0.8,0.1-1.1,1l-0.4-3.4
			l4-0.5l0.7-0.9l-2.9-0.9l-1-1.6l3.2-3.4l-1.5-2.4l3.1-4.7l2.1,0.6l2.4-3.3l-3.4-1.7l-3.4,1.7c-1.2,0.1-1.8-1.1-1.9-2.3l2.4-3.3
			l-8.5-10.1l1.4-1.9l3.3,0.5l-0.7-2.5l4-3.5l-2.6-1.4c0.2-1.3,0.1-2.2,0-3c-0.3-2.5-1.6-2.8-3.2-2.6c-1.2,0.1-2.3,0.7-3.5,0.9
			l-0.7-2.1c5-1.9,8.9-6.7,10.2-12l1.7,0.6l1.4-5.3l-5-4.5l-2.6,1.6l-2.1-0.6l2.4-3.7l7.7-3.1l1.4,1.5l2-3.3l-1.2-3.3
			c-0.3,0.5-0.3,0.5-0.7,0.5c-0.4,0-0.5-0.4-0.5-0.8c-0.1-0.8,0.2-1.7,1-1.8c0,0,0.4,0,0.8,0.3l-0.4-3l-3.4-1.7l-1.5,1l-2.9-0.9
			l1.8-1.5c-0.1-0.8-1.3-3.7-2.5-3.6l0.1,3.9l-1.4,1.5l-0.8-2.9l-3.2-2.6l3.2-0.4l4-6.5l2.1,1l-0.9-0.7l-0.9-0.7l-3.2-2.6
			c0.1,0.4,0.5,0.4,0.5,0.4c1.6-0.2,0.2-5.2,2.9-5.5l0.5,0.4l-0.5-4.2l-3-1.8l1.5-4.1l-2.9-0.5l-0.6-1.6l2-3.7
			c0.3-0.5,0.3-0.9,0.3-0.9c-0.2-1.3-1.5-2-2.3-1.9c-0.8,0.1-1.1,0.6-1,1.4l-4,0.1l2.9-2.5l-3-1.8c0.2-1.3,0-3-0.2-4.7
			c-0.5-4.2-3.1-8.7-6.3-11.3l1.8-5c-0.9-0.7-1.5-2-1.6-3.2c-0.3-2.1,1-4.9,2.4-6.8l-3.8-4.7l-3.2,0.4l4.3-7.4
			c-3.8-1.2-5.3-3.6-5.7-7c-0.5-3.8,0.9-8.7,0.5-12.1c-0.6-5.1-6.7-11.6-10-15.1c0.7-4.4,1.3-9.2,0.7-13.4l6.1-9.4l-2.6-4.8l5.8-5
			l5.1,1.9c4.1-2.7,18-10.9,23.2-11.5c0.4,0,0.8-0.1,1.2-0.1l3-1.7l3,1.3l2.3-0.7l10.6,3.8l1.9-0.7l4.6,7.6l1.9-0.7l0.2,1.3
			c0.5,4.2,9.6,8.7,11.2,21.8c0.5,4.2,0.4,9.9-1.6,16.6c0.8,0.3,1.8,1.5,2,2.8c0.1,0.8-0.2,1.7-0.5,2.2l2.6,4.4l2.4-0.3l0.8,6.8
			c1,1.2,3,1.3,4.6,1.6c0,3.4-0.3,6.9-1.2,10c0.7-0.9,2.2-2,3.8-2.2c0.4,0,0.8-0.1,1.2,0.3l-0.3,4.3c0.5,0.4,1.2,0.3,2,0.2
			c0.4,0,0.8-0.1,1.1-0.6l2,2.8l-2.8,6.4l2.1,1l-2.2,5l3-2.1l2.4,0.1l0.9,3.8l1.4,1.5l-0.3,3.9c-0.3,0.5-0.7,0.5-1.1,0.6
			c-0.8,0.1-1.7-0.6-2.9-0.5l-0.4,0l1.1,5.9c4.6,1.1,8.6,4.5,13.3,6.1c-0.4,0-1.1,0.6-1.5,0.6c-0.8,0.1-1.6-0.2-2.1-0.6l-3.4,2.1
			c-2.6-1.4-5.5-2.3-8.3-2l-0.2,1.3l1.7,3.7l0.5-2.2l5.6,2.7l1.5-0.6l-0.1,5.6l3.6,3l3.6-3.5l0.5,3.8l-3,2.1l-0.2,1.3l2,0.2
			c0.5,0.4,0.7,2.5,1.1,2.4c0.4,0,0.7-0.5,1-1.4L711.8,314.9z M779.1,420.1c1.4,1.5,2.8,2.7,4.5,3.3l-0.8,3.5l-2.8-2.7l-1.9,0.7
			l-0.2,1.7c1.6,0.2,2.8,0.1,3.1,2.2l-3.1-2.2c-1.4,1.5-2,3.3-2.6,5.1c0.7,2.1,3.3,3.5,5.4,4.1l1.5-0.6l0.9,3.8l-1.2-0.3
			c-1.2,0.1-2.6,1.6-3.3,2.6l0.6,1.2l2,0.2l0.1,3.9l-3.2,0l-3.3,2.6c-1-1.6-3.4-1.3-5-1.1l-0.4,0c-1.6,0.2-3.5,1.3-5,1.9l1.4,1.5
			l-2.8,0.3l-0.6-1.6l1.3-2.3l-2.5-0.5l-2.1,2.4l-2.8,0.3c-2.8,0.3-4.8-2.8-7.3-3.8l1.9-0.7c-0.8-3.3-2.8-6.1-3.9-9l0.2,1.7
			c-1.6,0.2-2.8,0.3-4.4,0.5c-1.2,0.1-2.8,0.3-4,0.5l-1-7.6l6.3-4.2l3.3,0.9c0.3-0.9,0.1-2.2,0-3l-0.1-0.8l-1.8,1.9
			c-2.8,0.3-5.3-0.6-8.3-1.6c1.4-1.5,2.8-3.4,2.9-5.5c-0.4,0-1.2-0.3-1.6-0.2c-2.4,0.3-4.2,2.2-6.6,2.5c-0.6-1.2-0.7-2.5-0.9-3.8
			c-0.2-1.7-0.1-3.9-0.3-6l-3.4-1.7c-0.2-1.3,1.8-1.9,2.9-2.5l0.5,4.2l1.3-2.3c1,1.6,2.8,2.7,4.3,2.5c3.2-0.4,4-7,9.2-7.6
			c0.4,0,1.2-0.1,1.6-0.2l-3.7-0.4l-4.1,2.7l-2.1-1c-2.8,0.3-3.5,0.9-5.8,2.4c-2.2-1.4-3.6-2.6-3.8-4.7c-0.1-0.8,0.1-2.2,0.8-3.5
			c-1.4-1.5-2.9-3.5-3.9-5.5l-1.7-0.6l2.2-5.4c-2.4-0.1-4.6-1.1-7-0.9c1.9-1.1,3.3-3,5.5-4.1c-1.7-3.7-7.4-7.3-11.4-10.6l1.4-1.5
			l-3.7-3.4l0.5-5.7c-1-1.2-4.9-6.7-5-8c-0.3-2.5,3.4-1.7,3.5-4.3l-2.8,0.3l-3.4-1.3l-0.1-3.9c2.3-0.7,4.6-2.3,6.4-3.4l2,0.2l1-1.4
			l-3.7-0.4c2.8-3.4,6.6-5.1,9.9-8.1c-2.1-0.6-4.2-1.2-6.2-1c-0.8,0.1-1.2,0.1-1.6,0.2l-0.2,1.3l0.7-0.5l2.4-0.3l0.7,2.5l-2.6,1.6
			c-2.5-1-6-3.1-7.2-5.6l2.8-3.4c2.1,1,4.2,1.6,5.9,2.3c0.3-0.9,0.6-1.8,0.5-2.6c-0.5-4.2-5.7-0.2-6.2-4l4.4-7l0.7,2.1l-1.5,1
			l4.8-0.2l1.3-2.3c3.4,1.7,6.2,4.4,9.5,4.8c0.2,1.7-0.4,3.1-1.5,4.1l-1.8-1.5l-0.5,2.6l4.4-0.5c1.2,2.9,2,6.2,3.6,9l0.8-3.5
			c2.1,0.6,1.5,5.8,4.3,5.5l1.8-1.5l2.1,1l-2-0.2c-2.2,1.6-4,3.5-6.2,5.1l2.9,0.9l2.3-0.7c4.4-0.5,5.1,8.4,7.5,11.1l-3.4,1.7
			l-1.7-0.6l-1.1,0.6l5.9,2.3c1-1.4,0.9-2.7,1.9-4.1l1.8,1.1l-0.1,2.6l-1.4,1.9c2.3,2.3,5.7,6.6,6.1,10c0.1,0.8,0.2,1.3,0.2,1.7
			l1.7,0.6l-0.9,2.7c-1.3-0.7-1.9-2.3-2.9-3.9l-1.2,3.2l4.8,5.9c-0.2,1.7-0.4,3.5-0.2,5.2l1.1-4.4l2.9,3.5c3-1.7,6.6-2.5,9.5-4.6
			l0.4,3L766,380l-2.2,1.6l-4,0.1l1.1,5.5l1.1-0.6l0.7,2.1l-2.5-0.5l-1.9,1.1l0.4,3l2.2,1.4c4.3-4.4,4.9,0.3,7.6-7.4l2.8,0.1
			l-0.1,2.6l2,0.2l1.4-1.9l2.3,1.9c-1.4,1.9-3.6,0.4-4.9,3.2l2.9,3.5c-0.8-0.3-2.5-1-3.7-0.8c0,0-0.4,0-0.8,0.1l0.3,2.1l-1.8,1.5
			l-3.5-2.1l-2.7,1.2l0.6-1.8l-1.3-0.7l-2.9,2.9l4,2.9l3.5-1.3l5,1.5c2.3-1.1,4.6-1.9,7.3-2.6l-1.2,3.2c1.4,1.5,2.9,3.5,3.9,5.5
			l-5.5,1.5l2.3,1.9l1.4-1.5l2-0.2c0.6,1.2,1.2,2.9,1.3,4.1C783.7,417.9,781.6,417.7,779.1,420.1z M797.1,299.1l0.4,3.4
			c0.2,1.3-0.6,1.8-1.7,2.4l0.8-0.1c-0.3,0.5-0.2,1.3-0.2,1.7c0.1,0.8,0.2,1.3,0.7,2.1l-2.4,0.3l-1.1-2.4c-0.8,0.1-1.1,0.6-1.5,1
			c-2.2-1.4,0.1-2.2-3.1-2.2l-0.6,1.4c-0.1-0.4-0.8-0.3-0.8-0.3c-3.6,0.4-4.3,4.4-5.1,7.5c-0.9-0.7-1.5-2.4-2-3.2l1.5-0.6
			c-0.5-0.8-1.1-2-2.3-1.9c-1.2,0.1-2.4,0.3-3.5,0.9l1.4,1.5l-1.8,1.9l1.1,2l0.2-1.3l1.6,0.2l-0.2,1.3l-1.2-0.3l-0.6,1.8l0.8-0.1
			c0.8-0.1,1.4-1.5,2.2-1.6c0.8-0.1,1.3,0.7,2.1,0.6c1.6-0.2,6.7-4.7,7.3-6.1c1.8,1.1,3,4.4,3.2,6.1c0.7,5.9-0.7,7.4-4.6,11.8
			c-0.8-0.3-1.4-1.5-1.5-2.4l-0.2-1.7l-5.7,6.3c3.5,2.1,2.3,2.3,5.5,1.9l1.6-0.2c0.1,0.8,0.3,2.1,0.7,2.5c-0.8-0.3-2.1-1-3.3-0.9
			c-0.8,0.1-1.4,1.5-2.6,2l2.2,1.4l2.7-1.2c0.4,0,0.5,0.8,0.6,1.2c0.2,1.7-1.2,3.6-1.9,4.5c-0.8,0.1-1.6-0.2-2.4-0.1
			c0,0-0.3,0.5-0.3,0.9l2.3,1.9c-0.7,0.9-1.7,2.4-2.9,2.5c-0.4,0-2.1-0.6-2.1-0.6l-0.7,0.5c2.2,1.4,2.9,3.5,5.1,5l0.6-1.4l-1.7-0.6
			c0.2-1.3,1.3-2.3,2-3.3c0.8-0.1,2.4-0.3,3.2,0c-0.3,0.5-1.1,1-1,1.8c1,1.2,1.9,2.3,2.5,3.6c0.7-0.5,1.5-1,2.3-1.1l0.5,0.4l1.4,1.5
			c-3.1,1.2-6.7,1.7-8.3,4.5c-1.4-1.5-0.8-3.3-3.4-4.3l-0.7,0.5c0.6,1.6,1.6,2.8,1.7,4.1c0.1,0.4,0.1,0.8-0.2,1.3
			c0.8,0.3,1.8,1.1,2.3,1.9l1.9-1.1l2.5,0.5c-0.3,0.5-1.1,0.6-1.5,0.6c-0.8,0.1-1.2,0.1-2,0.2c-0.7,0.9-0.9,2.3-2.5,2.9l-1.7-3.7
			l-2,0.2c-0.4,0-1.1,1-1,1.4l3,1.3c-2.4,0.3-4.2,1.8-6.2,2.1c-0.2,1.7,0.4,3-1.1,4.4c-0.1-0.4-0.1-0.8-0.1-0.8
			c-0.1-0.8-0.2-1.3,0.2-1.7c-1.9-1.9-2.9-0.5-4.2-1.2c0.6-1.4,1.3-2.3,1.2-3.6c-0.4,0-1.4,1.5-1.4,1.9l0.1,0.4
			c-0.8,0.1-1.5,0.6-2.7,0.8c-0.4,0-1.2-0.3-1.7-0.6l-0.3-2.1c0.3-0.9,1-1.8,2.2-2c0.8-0.1,1.6-0.2,2.1,0.6
			c-0.1-0.4-0.1-0.8-0.2-1.3c-0.1-0.4-0.1-0.8-0.6-1.2c0.3-0.5,0.7-0.5,1.1-0.6c0.8-0.1,1.6,0.2,2.4,0.1c0,0-0.1-0.4-0.1-0.8
			l-0.1-0.4l-0.1-0.4c-0.2-1.7-0.4-3.4-1.3-4.1l-0.5,2.2c-1-1.2-3.8-1.2-4-2.9l0.6-1.8c-0.8-0.3-1.7-0.6-2.5-1
			c0.7-0.5,1.9-0.7,3.1-0.8l-0.2,1.3l1.7,0.6l-0.1-0.4c-0.3-2.5-3.9-5.5-6-6.1l1.7-2.4c0.4,0,1.2-0.1,1.6,0.2c1-1.8-1-4.6,1.8-5
			c0.4,0,1.2,0.3,2.5,0.5l-0.1-0.4l-0.1-0.4c-0.2-1.7,1.1-0.6,1.8-1.5c-1-1.2-1.5-2.4-3.1-2.2c-0.4,0-1.2,0.1-1.5,0.6
			c0.2,1.3-0.1,2.6-0.8,3.5c-1.3-0.7-2.9-0.9-3.8-1.7c1.4-1.5,4.8-4,6.7-4.3c0.4,0,1.8,1.1,2.2,1.4c0.3-0.5,0.7-0.5,0.7-0.5l0.4,0
			l0.8,0.3l0.3,2.1l-1.1,1c0.8,0.3,1,1.2,1.1,2c0.2,1.3-0.1,2.6-1.2,3.2c1.9,1.9,5.7,0.6,8.2,0.7c0.3-0.9,0.5-2.2,0.4-3.5
			c-0.8-0.3-3.1-2.2-3.3-3.9c-0.1-0.8-0.2-1.3,0.2-1.3c-1-1.2-1.9-1.9-2.8-2.7c-0.8,0.1-1.1,0.6-1.9,0.7l-0.8-0.3
			c0.2-1.3,6.3-1.6,7.7-2.7l-1-1.6c-1.1,0.6-3.1,1.2-3.9,1.3c-1.6,0.2-3.3-0.9-5.3-0.6c-0.5-0.4-0.9-0.7-1-1.6
			c0.7-0.9,1.7-2.4,2-3.3c2.2,1.4,5,4.1,8.1,3.7l-0.1-0.8c-0.4-3-5.1-5.4-7.2-6c-0.2-1.7-1.2-3.3-1.4-5c-0.7-5.5,1.3-5.8,5.3-6.3
			c1.2-0.1,6.1-6.4,7.5-7.8l-1.2,3.6c0.2,1.3,0.7,2.1,1.6,2.8c1.1-1,0.9-2.3,1.1-4c0.8-0.1,1.6,0.2,2.8,0.1
			c-0.3,0.9-0.2,1.3-0.1,2.2c0.1,0.4,0.9,0.7,1.3,0.7c0.8-0.1,2.6-2,2.9-2.5c-0.1-0.4-0.1-0.8-0.2-1.3c-0.2-1.3,0.1-2.2,0.8-3.1
			c0.8,0.3,1.7,0.6,2.2,1.4l1.3-2.7C796.8,296.5,797,297.8,797.1,299.1z M870.1,235.7c-0.5,2.2-1.1,4.4-2,6.3l3.2-0.4
			c0.2,1.3-0.1,2.6,0.1,3.9c0.1,0.8,0.7,2.1,0.8,2.9l-2-0.2c-0.8,0.1-2.3,1.1-3.4,1.7l1.3,0.7l2.7-0.8c-0.7,4-1.8,8-3,11.6
			c1.5,2,2.9,3.9,3.6,6.4l-1.7,2.4l-2.1-0.6l-2.7,0.8c1.8,1.5,3.7,3.4,5.8,4l0.3,2.5c0.2,1.7,0.9,3.8,2.9,3.9l-1.7,2.8
			c-0.2-1.3-2-2.8-2.5-3.6c-2.5,2.5-1.5,4.1-5.1,4.5c-6.4,0.8-11.6-5.4-13.2-5.2l0.1,0.4l-1.1-5.9l-5.1,4.5l2.8,2.7l2.6-1.6
			l-0.5,2.2l3,1.8l-1.3,2.3c-0.5-0.4-2.1-1-2.3-2.3l-1.5,1c-0.8-0.3-1.3-0.7-2.1-0.6c-1.6,0.2-2.5,2.5-2.3,4.2l2.4,0.1l1.7-2.8
			l1.5,5.8l2.8-3.8l4.8,2.8l1.5-1l-0.9,2.7l2.7,5.3c0.8-3.5,3-8.1,6.6-8.6l0.4,0c-0.6,1.8,0.5,4.2-1,4.9c1.5,2,3.9,2.1,5.7,3.6
			c-0.7,0.5-5.5,4.1-6.3,4.2c-2.4,0.3-4.9-0.3-7.3-0.4l-3.2-2.6l-1.5,0.6l2.8-3.8c-1.7-0.6-9.4-4.4-11.8-4.1l-0.4,0l-0.5,2.2
			c-0.6-1.6-2.4-2.7-4-2.5c0.3-0.9,0.6-1.8,0.5-2.6c-0.2-1.3-2-2.8-2.9-3.5l3.9-4.4l1,1.6l0.8,0.3c1.2-0.1,1.7-2.4,2-3.7l-3.4-1.7
			l-1.8,1.9l-2.7-2.2l1.9-1.1c-1.6-0.2-1.7-4.1-4.4-6.3l1.9-0.7c-7.3-3.8-13.3-19.4-21.3-18.4c-1.2,0.1-2.3,0.7-3.5,1.3l-0.1-0.8
			c-0.3-2.5-3.4-4.3-5.4-4.1l-3.6,6.9l1.9,1.9l-1.6-0.2l-4.7,1.4l-0.7,0.9l4.1,3.4l1.8-1.9l-2.4,0.3l1.7-2.8
			c2.2,1.4,5.1,2.4,7.3,3.8l-0.1,2.2l-1.3-0.7c-1.9,0.7-3.9,1.3-5.8,2c0.2,1.7-0.8,3.5-1.4,5.3l1,1.2l0.9-2.7
			c-0.5,2.6-1.8,5.4-3.6,6.9l2.4-0.3c-0.5,2.2-2.1,5.9-4.5,6.2c-0.8,0.1-1.2-0.3-1.6-0.2l-0.3,3.9c-2.4-0.1-4.5-3.7-6-5.7
			c-2.9-0.5-6.5-0.1-9.8-0.5c1.2-0.1,6.2-2.1,6-3.3c-0.2-1.7-1.6-2.8-1.8-4.5l-3.7,2.6l1-1.8l-2.3-2.3c3.1-1.2,4.2-4.8,3.8-8.2
			c-0.1-0.4-0.1-0.8-0.2-1.3l1.5-1l-2.4-0.1l-0.1,2.2l-2.1-1l-1.5,1l-2.3-2.3l1.9-1.1l1.8,1.5l1.6-0.2l-0.8-2.9
			c-0.2-1.3,0-3.4,1.6-3.6c0.8-0.1,2,0.2,2.9,0.5l-0.3,4.3l1,1.2l1.4-5.3l3.6,0l0.3,2.1l-1.4,1.5l2.7,2.2l1.6-3.6l-3.2-2.6
			c0.2-1.7,0-3.4-0.2-4.7l-0.1-0.8l-0.6-5.1l-2.3,0.7l-1.7-3.7l2.1,0.6l2.5-2.9c-0.5-0.8-1-1.6-1.1-2.4c-0.6-4.7,3.8-8.7,2.8-16.3
			c-2.5-0.5-4.9-3.3-6-5.7l1.9-4.5l0.4,3l4.1,0.8c0.1-2.2,1.8-5,1.5-7.1c-0.1-0.8-0.6-1.2-1.5-2c1.4-1.5,1.5-4.1,2.5-5.9l-1.1-5.5
			l-0.2-1.3c-1.3-7.6,3.1-13.7,3.1-20.6c7.8-8.7,13.6-13.8,24.8-15.1c1.6-0.2,7,0.9,8.6,1.1l2.3-1.1c2.2,1.4,6.2,4.4,9,4.5l1.2-0.1
			c2-0.2,3.3,3.9,5.7,3.6l1.1-1c4.5,6.8,17,25.9,17.9,33.5c0.8,6.4-1.1,13.9-0.3,20.3c0.3,2.1,1.8,4.5,2.8,6.5
			c-0.5,2.6-1.1,7-0.7,10.4c0.1,0.4,0.2,1.3,0.2,1.7c1.4,1.5,3,1.8,4.8,2.8L870.1,235.7z M895.7,422l-2.1-0.6l0.8-3.5
			c-1.5,0.6-2.7,0.8-2.6,1.6c0.1,0.4,0.6,1.2,1.5,2l-2.7,4.2c1.7,0.6,2.4,6.2,4.7,8.5c-0.7,0.5-1,1.8-0.9,2.7
			c0.1,0.4,0.2,1.3,0.6,1.6l-2.9-0.5l0,3.4c-1.2,0.1-1.9,1.1-2.1,2.4c1.9-0.7,3.3-2.6,4.4-4c0.1,0.8,1.1,2.4,1.3,3.7
			s-2.7,4.6-3.8,4.8c-2,0.2-3.6,0-5.4-1.1l0,3.4l-3.1-1.8l-2.2,2l-2.9-0.5l-5.7,3.3c-1.4-1.1-3.2-3-5.1-2.4l-0.4,0
			c0.2-1.3,0.1-2.2,0-3.4c-0.1-0.8-0.7-2.1-1.2-3.3l-0.2,1.7l-4.1-3.4l3.6,0l0.1-2.2l-2.1-0.6l1-1.8l-3.9-2.1l0.7-4.4
			c0.5,0.4,0.8,0.3,1.2,0.3c1.6-0.2,3.5-0.9,4.2-1.8l3.5,2.1l2.9-2.5l-0.4,3.1l1.3,0.7l1.2-3.2l-7.8-4.2l-2.6,2l-3.2-2.6
			c0.2-1.7,0.8-3.1,1.9-4.1l-2.6-1.4l-1.1,0.6l-4-2.9c2.8-0.3,2.7-4.6,2.4-6.8c-0.3-2.1-1.5-2.4-3.1-2.2l-0.8,0.1l-3.2-6.5l3.8-8.2
			l-3.9-5.1c0.4-3.5,2.1-12.3,3.8-14.7l-0.2-1.7c-1.7-0.6-3.6,0-4-2.5c-0.2-1.7,1.7-2.8,2.9-2.9l3.3,0.9l1.1-1
			c-1.6-2.8-5.3-3.6-8-5.5c0-3,3.1-4.3,2.7-7.2l-3.3-3.5l1-1.8l1.6-0.2l-2.1-1l0.8-3.5l2.5,0.5l0.1,0.8c0.1,0.8-0.2,1.7,0,3
			c0.1,0.4,0.6,1.2,1,1.6l2.1-2.8l2.3,1.9l-1.8,1.9l0.9,0.7l1.6-0.2c-0.1-0.8-0.3-2.1-0.4-3.4c-0.4-3.4-1.3-7.6-4.9-7.1
			c-0.4,0-0.8,0.1-1.1,0.6l-6.8-5.6c-0.3-2.5,3.4-2.1,4-3.9l-0.1-0.4c-0.2-1.3,0.4-3.1,0.3-4.3c-0.1-0.8-0.6-1.2-1.1-2l1.8-1.5
			l-1.6,0.2l-3.8-1.7l1.4-1.9c0.5,0.8,1.8,1.5,2.7,1.8c0.8-0.1,2.6-1.6,3-1.7c2-0.2,3.4,1.7,4.4,2.9l0.8-0.1l0.4,0
			c1.2-0.1,2.8,0.1,3,1.8c1.2,0.3,2.1,1,2.7,2.2l2.3-1.1c-1.7-0.6-5.1-5.4-7.1-5.1l-0.4,0c0.1-2.2,3.5-4.3,5-4.9l1.7,1.1l0.5-2.2
			l-3.3-3.5l-2,3.7l-2-0.2c2.8-3.8,4.6-8.8,9.7-9.4c2.8-0.3,1.8,4.5,4,6l-1,1.8c0.3,2.5,3.4,4.3,5.1,5.4l0.4-3.1l2,0.2l-0.6,1.4
			l1.8,1.1c0.7-0.5,1.9-0.7,2.7-0.8l-4.3,7.9c0.5,0.8,1.7,0.6,2.5,0.5c0.8-0.1,1.6-0.2,1.9-0.7l-1.2,3.2l3.2,3
			c-1.9,0.7-3.4,2.1-5.2,3.7l-1.6-0.2l-0.6,1.4l2.4,0.1l1.1,2l4.5,0.3c-1.4,1.9-1.5,4.1-2.4,6.3l-0.1-0.4c-0.2-1.7-2.1-3.6-3-4.8
			c-0.7,0.9-1,1.4-0.9,2.7c0.1,0.4,0.2,1.3-0.2,1.3l-2.1-1l0.3,2.1c5.9,1.8,6.7,4.8,8.9,10.1l-1.2,3.2l1.8,1.1
			c0.4,3.4-0.7,7-0.4,9.9c0.3,2.5,2.1,4,3.9,5.1c-0.4,3.5-1.2,6.6-2,10.1l-2-0.2l0.6,5.1l0.7-0.5c2-0.2,3.8,1.2,4.4,2.9l-3.5,4.7
			l1.6,0.2l1.5-0.6l-1.4,1.5c1,1.6,2.7,2.2,3.7,3.8l0.7-0.5c-1.3,2.7-2.4,6.3-2.1,9.3c0.1,0.4,4.1,7.2,4.6,8L895.7,422z"/>
		<linearGradient id="SVGID_7_" gradientUnits="userSpaceOnUse" x1="1023.6984" y1="488.0105" x2="1023.6984" y2="141.8464">
			<stop  offset="0.2" style="stop-color:#FFFF01"/>
			<stop  offset="1" style="stop-color:#FFA800"/>
		</linearGradient>
		<path class="st8" d="M1115.9,460.3c0.4,0.4,1.1,0.8,1.5,0.8c0.8,0,1.1-0.4,1.5-0.4l0.8,5.1l-7.8,4.4l-2.5,6.3
			c0-0.4,0.4-0.8,0.4-0.8c0-1.2-1.5-2.3-2.7-2.3c-0.4,0-0.4,0-0.8,0l-2.3-2.7l-1.8,3.6l-1.9-1.5l2.9-3.6l-5-3.8l1.8-7.1l-2.2,1.2
			c-4.2-0.7-1.3-8.6-5.8-9.7l0.7-1.6l-2.7-4.6c0.4-0.4,1.5-0.4,1.5-0.8l-2.7-1.1l-0.1-7.8l1.9-1.2c0-0.4-0.4-0.4-0.8-0.4
			c-1.1,0-2.6,0.4-3,0.4c-2.6,0-2.7-4.6-4.6-6.6l2.6-0.4l-3.5-4.6l4.9-1.3l-4.2-1.9l0.3-3.5l-2.7-4.3l-2.6,2.8
			c-1.5,0-3.8-2.7-3.8-4.2c0-0.8,0.4-1.2,1.1-1.6c-0.8-1.6-2-6.6-2-6.6l-1.9,0.4l-10.6-4.1l0,2.7l-4.1,1.2l1.8-3.6
			c-0.4,0-0.4-0.4-0.8-0.4c-1.1,0-2.6,1.2-3.4,1.6l-8.7-4.5c-0.4,0.8-1.9,1.6-3.4,1.6c-0.8,0-1.5-0.4-1.9-0.7
			c-2.6,1.6-5.6,3.2-8.2,4.4l-1.5-0.4c-2.6,2-6.7,4.4-10.1,4.5l-1.9-2.7l-1.4,3.9l-4.6-2.7l-4.9,2l-2.3-0.4l0.7-1.2l-0.8-0.8
			c-3.4,0.1-12,1-11.9,6.1l-1.1-0.4l-6.3,3.6l-1.5-0.4c-2.3,0-5.6,0.5-6.4,2.8l1.2,1.9l-3.8-0.3c-2.6,3.2-6.3,5.6-10,7.2l3,1.9
			c-1.8,3.2-3.7,4-6.3,6.4l1.9,3.5l-1.4,3.5l1.5,0.8l-1.4,3.9l-0.4,0c-2.6,0-3,2.8-2.9,5.1c0,2,0.5,4.3,0.5,5.5
			c-0.4,0.8-1.8,2-3.4,2c-0.4,0-0.8,0-0.8-0.4l1.2,3.5l-4,10.6l-2.2,0.8l1.9,2.3l-5.5,8.7l-1.5,0l0.1,3.9l1.5-2l-0.7,4.3l-3.4-0.3
			l-2.6,1.6c-2.3,0-3-0.3-3.1-2.3c0-0.4,0-0.8,0-0.8s-0.7,2-1.8,2c-1.1,0-3-1.9-3.1-3.1c0-0.4,0-0.8,0-1.2l4.5-0.9l-4.9-2.3l1.1-3.1
			l-3.8-0.7l0.7-3.9l2.3,1.1l1.9-1.6l-1.6-4.3c-1.5-0.8-3-1.9-4.2-2.7c3-0.8,6-2.8,6.7-6.4l-4.2-4.2c0.4-0.4,0.7-0.8,0.7-0.8
			c0.8,0,1.9,1.1,2.3,1.1l1.9-0.4l-2-4.7l1.9-0.8l-3.2-9.3l4-8.7l-1.6-2.7l1.8-5.1l3.7-1.2l0-2.7c0-0.8-0.4-0.8-0.4-0.8
			c-0.4,0-1.1,1.6-2.2,1.2l-3.4-1.5c4.7-10.3,14.3-20.6,14.9-32.3l-2.6,2c-1.1,0-2.3-0.7-2.3-1.9l2.2-1.6l3,0.3l1.1-1.2l-2.3-4.7
			l1.5,0.4l3.4-1.6c-0.8-0.4-1.9-1.9-1.9-2.7c0-0.4,0-0.8,0.4-0.8l-3.4-2.7c0.4-0.4,1.1-0.8,1.9-0.8c0.4,0,0.8,0,0.8,0.4
			c3.2-8.3,3.8-17.3,11.6-23.3l-4.6-5.4l1.9,0.4l1.3-9c0.7-0.8,1.9-1.2,2.6-1.2c1.1,0,2.3,0.4,3,0.7c-2.3-1.1-3.8-3.8-4.6-6.2
			l1.1-3.9l-2.3-2.3l3.4,0.7l1.9-1.6l-1.9-3.5l1.1-2l4.5,1.1l0.7-0.4l-4.2-3.8l-0.1-4.3l6.1,3.8l-3.4-3.1c1.4-4.3,0.7-5.1,1-5.1
			c0.4,0,1.1,0.4,3,0.3l1.9-1.2c0.4-1.2,0.3-2.4,0.3-3.5c0-2.3-0.5-4.3-0.5-6.6c0-0.8,3-2,4.5-2c0.4,0,0.4,0,0.8,0l-3.4-3.5l0-2.3
			l4.1-1.6l2.3,0.4l2.6-3.2l-1.5-1.1l3-3.2l-4.2-5l1.1-1.2l2.3,2.7l3.7-5.5l-1.9-1.1l-0.5-5.1l2.3,1.5c1.5,0,1.9-0.8,1.9-1.6
			c0-0.8-0.4-1.9-0.4-2.7l1.5-0.8l-0.4-3.5l3-2l-1.2-2.7c0,0,0,0,0.4,0c0.4,0,1.5,0.4,2.3,0.4l3.3-3.6l-6.1-3
			c1.1-0.8,2.6-1.2,4.5-1.3c1.5,0,3,0.3,4.5,0.7l-3.5-3.9l-1.1,0.4l-2.7-1.5l2.6-1.2l9.2-9.5l-1.9-1.1l-0.1-6.3l2.6,0
			c0.4-0.4,0.4-0.8,0.4-1.2c0-1.6-1.2-3.1-1.2-4.7l0-0.4l4.4-5.2l1.2,2.7c2.3,0,2.6-0.8,2.6-1.6c0-0.4-0.4-1.2-0.4-1.6
			c0-1.2,4.1-0.5,4.1-1.6c0-0.4,0-0.8-0.4-1.2c4.1,0.3,6.8,3.4,6.9,7.7l3.4-1.6l-1.5-0.8c0-2,2.6-3.2,4.5-3.2l2.3,2.3l-3.3,2.4
			c0.4,0.8,1.5,1.1,2.3,1.1c0.4,0,0.8,0,0.7-0.8c1.5,1.5,8.4,7.7,11.4,7.6c0,0,0.4,0,0.7-0.4l-4.5,2l-2.2,5.5l1.9,0.4l5.8,8.1
			l-2.5,7.9l1.6,2.7l0.7-1.2c0,0.8,0,1.6,0,2.3c0.1,3.1,0.5,6.2,1.7,8.6l2.3,0.4l-1.8,3.6c2.3,1.1,4.2,4.2,5,7
			c-1.1,0-1.5,1.2-1.5,2.4c0,1.2,0.4,2.3,1.5,2.3l0.4,0c-0.3,3.5-1.4,7.1-2.8,10.2l6.5,6.5l-3.3,2.8c-0.4,0.8-0.4,1.2-0.3,1.6
			c0,0.8,0.4,1.2,0.8,1.2c0.4,0,0.7-0.4,1.1-0.4c1.5,0,1.9,1.5,1.9,2.7c0,0.8-0.3,1.6-1.1,2l5,5.4l-3.8-0.3l-1.9,0.8
			c3,0.7,6.1,4.6,7.7,7.3l-0.7,2c0,0.4,1.9,1.1,3,1.1c0.4,0,0.8,0,1.1,0l-3,2.4l3.5,3.9l-3.3,3.6l3.1,2.3l1.9-0.4l1.6,4.7l-4.6-1.9
			l-1.8,2.8l-5.6,2.1l3.4,2.3l4.1-3.2l4.2,0.7c-0.8,0-2.2,0.8-2.2,2c0,0,0.4,0,0.4,0.4l3.1,2.3l-1.1,2.4l3.1,2.7l2.8,8.6l-2.6,2.4
			l3.8,0.7l-1.8,3.9l1.9-0.8l3.9,5.8l-3.7,1.6l1.2,2.7l1.1,0l0.4-0.4l-1.8,2.8l7.3,8.5l-2.6,0.8l3.8,1.5l0,0.4
			c0,1.6-1.8,2.8-3.3,2.8c0,0-0.4,0-0.8,0c2.7,5,2,4.3,4.6,5.8l-3,2c0.4,0.8,0.8,0.8,1.5,0.8c0.8,0,1.1,0,1.5-0.4l3.1,3.5l1.5-0.4
			c0,0.8-1.5,2.4-1.5,3.2c0,2,3.1,4.2,3.1,5.8c0,0.4-0.4,0.8-0.7,1.2l6.1,6.9l-0.7,0.4l2.7,3.9l-1.9,1.6c0.8,2.3,2,4.7,3.5,6.6
			l-3.4,0.1l6.1,4.2c2,9,4.4,17.5,12.4,22.5c0,0.4,0,0.4,0,0.8c0,1.2-1.1,2.4-2.2,2.4l0.8,3.5l3,1.9L1115.9,460.3z M1065.5,357.9
			c-0.8,0-1.5,0-1.9,0.4l-1.5-0.8l1.1-2.4l-3.4-0.3l1.5,1.9l-2.6,0.8l-1.5-0.8c0-1.6,0.7-3.5,2.2-3.9l-0.8-1.9l-1.9,0l0-2.7
			c0.7-0.8,1.1-1.6,1.1-2.4c-0.1-3.1-3.8-4.6-6.1-4.2l-0.8,0l1.5-1.6l-3-1.1c0.7-1.6,2.5-5.9,4.4-5.9l0-2.3l-3.8-3.1l0-0.4
			c0-1.2-3.4-2.3-4.2-2.7c0.7-2,0.7-4.7,2.5-5.5l-3.1-3.9l1.8-3.9l-1.5-1.1l-1.5,0.8l-0.8-0.8c1.5-1.2,0.3-3.1,1.8-4.3
			c-1.9,0-3.4-0.7-4.9-0.7l-3.5-3.9l1.1-1.6l-0.4-1.2l3.4-1.6l2.3,2.7l-0.1-3.5l-3-1.1l-1.9,1.2l-2.3-1.1l3.7-5.1
			c-1.1,0.8-1.8,2.4-3.3,2.4c-1.9,0-1.2-1.9-2.3-3.5l2.6-0.4l-0.4-3.9l1.1,0.4c1.1,0,1.9-0.4,2.6-1.2c-6.8-0.3-3.9-5.4-6.1-5.4
			c-0.8,0-1.5,0.4-2.6,1.2l-1.9-1.1c1.1-0.8,2.2-1.2,3.7-1.2c0.4,0,0.8,0,1.1,0l-2.3-0.7l-0.1-5.1c1.5-1.2,1.5-1.6,1.5-2.4l0-0.4
			c0-0.4,0-1.2,0.3-2.4l-1.9-1.1l-3,2.4c-0.4-0.4-0.4-1.2-0.4-1.9c0-1.6,0.3-3.1,0.3-4.7c0-2.3-1.2-3.5-3.4-3.5
			c-0.8,0-3.4,2-4.1,2.8l-1.1-1.2c1.1-1.2,4.5-3.6,4.4-4.4c0-0.4-0.4-0.4-1.1-0.4c0,0-0.8,0-1.1,0c-1.9,0-4.2-4.2-5-5.8l3,1.9
			l0.3-3.1l1.5,0.4l0-2.7l-1.2-1.2l0.4-1.2l-1.5-0.8l-1.8,2.8c0.4,0,0.4,0.8,0.4,1.2c0,0.8,0,1.6-0.3,2l-3.4-1.1l0.2,10.2l-3.7,2
			l0.5,7.8c-1.5,3.2-3.3,6.7-5.5,9.1l2.3,3.9l-1.9,0.8l0,2.3c0,2.3-1,5.1-1.8,7.5l-2.2,0.8l3.4,1.9l-2.2,0.8l1.9,1.9l-2.6,3.2
			l2.3,1.1l0,1.6l-2.6,1.6l-3.1-2.7c0,2,1.2,3.9,1.6,6.2l-1.9,0.4c0.1,3.1,2.6,0.7,3.5,3.9c-1.1,0.8-5.6,2.8-5.6,4.4c0,0,0,0,0,0.4
			l1.1,0.4l-2.6,2l2.3,1.1l-1.9,0.8l0.1,4.3l2.3,2.3l-3.4,0.1c0,0.4,0,0.8,0,0.8c0,1.2,0.4,1.2,0.8,1.2c0.4,0,1.1-0.4,1.9-0.4l1.1,0
			l0,0.4c-0.4,0.8,0.1,3.1,0.4,3.5l-3,2c3.8,0.7,4.9,1.1,4.9,1.9s-2.2,1.6-2.2,2l2.3,1.1l-0.7,2.4c2.3,0.4,1.9,3.1,6.1,3l3.1,2.3
			c-0.4,0.4-0.7,1.2-0.7,2c0,1.6,0.8,3.1,0.8,4.7l1.1,0c0.8,0,4.2,3.4,5.3,4.2c-0.4,0.8-0.4,1.2-0.3,1.6c0.1,3.1,5.7,5,8,5.3
			l-0.7,1.6l2.7,1.1l2.2-2.4c1.5,0.4,3.4,1.1,4.6,2.3l1.5-1.2l2.3,1.9l1.1-0.4c0.4,0,0.8,1.2,0.8,1.2c0.8,1.2,1.5,1.9,2.7,2.7
			l-3,3.2l0.4,1.2c1.5-0.8,3-1.6,4.5-2l3.4,1.5l2.6-2.4l2.3,1.1l2.2-1.2l3,1.5l3.4-1.6l0-2.7l1.1,0.4c1.5,0,2.6-0.8,3.4-2
			c-1.1-0.4-2.3-1.1-2.7-1.9c0.7-1.2,1.1-2.4,1.1-3.9c0-0.4,0-0.4,0-0.8l1.9,1.1l1.1-0.8l0.3-3.9L1065.5,357.9z"/>
		<linearGradient id="SVGID_8_" gradientUnits="userSpaceOnUse" x1="518.4888" y1="488.2851" x2="518.4888" y2="142.121">
			<stop  offset="0.2" style="stop-color:#FFFF01"/>
			<stop  offset="1" style="stop-color:#FFA800"/>
		</linearGradient>
		<path class="st9" d="M431.6,377.7c2.2,4.5,3.1,5.4,3.8,5.5c1,0.2,2.1-0.3,3.1-0.1c1,0.2,1.5,1,2.2,1.2c0.7,0.1,1.1-0.2,1.7,0
			c1.3,0.3,3.5,3.3,3.3,4.7c-0.1,0.4-0.2,1.1-0.6,1.3l0.7-0.2l-0.9,2.7c0.9,0.9,1.7,1.8,2.7,2c3.3,0.7,4.7-0.9,7.2-4.8
			c1.4,1.7,1.4,1.7,1.3,3.9c0.3,0.4,0.2,0.8,1.5,1c0,0,0.1-0.4,0.4-0.3c0.4-0.3,0.8-0.6,1.2-0.9c0.8-0.6,1.6-1.1,2.6-2.4l-0.6,1.3
			c0.7,0.1,1.1-0.2,1.7,0c1,0.2,2.1,1.5,2.9,2.8l-0.6,2.8l-2.3-0.5c-0.1,0.4-0.4,0.3-0.4,0.3c1.2,1,2.8,1.6,3.9,3l-0.6,2.8l1.1-0.2
			c0.1,1.5,0.3,1.9,0.3,2.2l0.5,0.8l1.7,0l-0.3,1.8c-0.1,0.7,0,1.8,1.2,2.8c0.6-1.3,1.2-2.3,1.6-3c-0.3-0.4-0.9-0.9-2.7-2.4l3.7-1.1
			l2.9,4.6l3.6-0.7l-1,5.3l-1.7-1.8c-0.5,0.6-1,1.6-1.8,2.2l0.8-0.6c2.9,4.6,4.9,6.8,8.6,7.5l-0.2,1.1c-0.2,1.1-1.8,1.8-2.8,2
			c-0.1,0.7-0.2,1.1-0.3,1.4l2,0.4l1.4,1.7l0.3,0.1l2.6-2.4l4,0.8c-2,1.4-2.6,2.4-2.7,3.1l-0.1,0.4c-0.3,1.4,0.3,2.2,0.5,2.7
			l-0.1,0.4l0.3,0.1c0.3,0.4,0.5,0.8,0.5,1.2c-0.1,0.4-0.1,0.7-0.1,0.7l-0.9,0.9c-1.2-1-5.2-3.6-5.9-3.7c-0.3-0.1-1-0.2-1.3-0.3
			l1.1,3.1l-2.3-0.5c-1.3-0.3-2.7-0.5-4.8-0.6l0.3-1.4c0.1-0.7,0.2-1.1,0.3-1.4c-0.3-0.1-0.7-0.1-1.2,0.9l-2.1-1.9l-1.7,1.5l0.2-2.5
			c0.3-1.4,1.1-2,1.8-2.2l0.7-0.2l-0.3-0.4l-0.6-0.5l-1.3,1.2c-1.8-1.4-2.1-1.9-4-2.6l0.7-1.7c-0.3-0.4-0.6-0.5-0.9-0.9
			c-0.3-0.1-0.6-0.5-0.5-1.2c-0.5,1-1.3,1.6-2.7,3.1l-1-3.8l1.4-3.4l-1.1,0.5c0.3-1.8,0.2-2.9,0-3.6l-3.4,1.5c0.6,0.5,1.1,1.3,2,2.2
			l-3,2.7c-1.3-0.6-2.2-1.2-2.9-1.3c-0.3-0.1-1.1,0.2-1.9,0.7l-3.5-3.6L446,416l-0.1-2.9l1.8-0.4c-0.2-0.8-0.4-1.5-0.2-2.6l-2.7-0.5
			c-1.2-1-2-2.2-2.8-3.5c-0.4,0.3-1.1,0.5-1.8,0.4c-2.1-1.9-3.6-2.9-6.5-4.2c0.9-0.9,0.9-1.3,1-1.6c0.1-0.4-0.1-1.1-0.5-2.7l1.5-0.4
			l-0.3-0.1l0.2-1.1c0.1-0.7-0.1-1.1-0.9-2.4l3.3-0.8l-0.3-0.4c-0.3-0.1-0.3-0.1-0.7-0.1c-0.7-0.1-2.6-2.7-3.1-3.5l-0.3-0.1
			c-1-0.2-2.6-0.9-2.3-2.6l0.1-0.7c0.7-0.2,1.1-0.2,1.4-0.1l0.3,0.1l0.7,0.1c-0.1,0.4,0.3,0.4,0.6,0.5c0,0,0.1-0.4,0.4-0.3
			C433.4,384.6,432.1,382.6,431.6,377.7z M530.4,428l3.1-2.5l0.3,2.4l5.3-2.4c0.1-0.4-0.3-0.4-0.6-0.5c-0.7-0.1-1.2,0.5-1.9,0.4
			l-0.7-2.1l1.4,0.3c0.7,0.1,2.1-1.5,2.9-1.4c0.4,0.1,0.8,1.7,1.5,1.8l0.9-0.6l-3.7-3.8l-2.1,1.5l-3.9-0.8l1.8-1.6
			c-0.2-0.8-2-5-3-5.2l3.2-1.3l0.9,0.9l3.9-2.7l2.8,2.8c0,0,0,0,0.4,0.1c0.4,0.1,0.9-0.6,1-1.3c0.1-0.7,0-1.9-1.3-2.6l4.4,0.1
			c0.4,0.1,0.4,0.1,0.7,0.1c0.7,0.1,0.6,0.9,0.5,1.2c-0.1,0.7-0.2,1.1-0.3,1.5l1.3,1l2.4-0.7l-3.4-7.2l3.6-1.6l-1-0.6l0.6-1.4
			l3.5,1.1c0.5-0.7,1.6-0.8,2.4-0.7c0.4,0.1,0.4,0.1,0.7,0.1l-5.2-3.7l2.4-0.7l-2-1.2c-0.8,0.2-1.7,1.2-2.4,1.1L548,397l4.4-3.7
			l-2.6-0.1l0.4-2.2l5,1l5.2-5.5l1.3,2.6l1.4-1.3l-2.6-3.6l-2.4,0.7l-2.1-0.8l2.7-0.6l0.1-4.2l5.4-5.1c0.1-0.7-0.8-1.7-1.5-1.8
			c-0.4-0.1-0.8,0.2-0.8,0.2l-2.9-2.1l2.7-0.6l3.8,3.1l4.1-3.8c0.1-0.4-0.3-0.4-0.6-0.5c-0.7-0.1-1.5,0.1-1.9,0
			c-0.4-0.1-0.3-0.4-0.3-0.4c0.1-0.4,2.4-0.7,2.5-1.4l-1.5-1.8l-5.6,0.1l1.7-5c-0.1-1.2-1.4-2.2-2.5-2.4c-0.7-0.1-1.4-0.3-1.6,0.5
			l1-3.3l-2-5l2.6-1.8l0.5-4.5c-1.8-3.8-6.7-9.4-10.9-10.6l1.7-2.7c0,0-1.1,0.2-1.9,0c-0.4-0.1-0.7-0.1-0.6-0.5l-3.9,1.1l-4.8-2.1
			l-1.9-3.4l-1.9,0.4c-0.4-0.1-1.4-2.2-2.1-2.3c-0.4-0.1-0.7-0.1-0.8,0.2c-3.4-5.3-4.6-0.9-3.7-5.7l-1-2.5l-2.9,1.7l-2.7-3.2l-2,2.7
			c-3.8-1.5-6.6-4-9-6.8l-3.2,3.2l-0.8-3.6c-1.6,0.8-3.4,2.4-5.6,2c-3.2-0.6-2.5-2.4-4.4-3.9l-1.6,0.5l-3.8-3.1l-3.1,0.5l1.2-2.1
			l-1.7-0.7l-3.4,0.5l-5.2-5.6l-1.8,1.6c-0.7-0.1-1.6-1.1-1.4-2.2c0,0,0.4-0.3,0.9-0.6c-1.3-0.7-3.1-1.6-5-1.7
			c-0.2-0.1-0.4-0.1-0.6-0.2l-4.8-4l-0.3,1.5l-3.9-0.8l0.4-2.2l2.9,0.6c0.1-0.4-0.9-1.3-1.9-1.5c0,0-0.4-0.1-0.4,0.3l-2.8-6.7
			c-0.2-0.8-0.6-0.9-0.9-0.9c-1.1-0.2-2.7,0.6-2.9,1.4l-7.5-7.2l0.4-1.8l4-1.5l0-3.8c0.1-0.4-0.3-0.4-0.6-0.5
			c-0.7-0.1-2.3,0.3-2.7,0.6l2.4-2.6c-1.7-2.6-2.5-5.9-3.5-8.7l2.5,0.5l-1.2-3.3c-0.1,0.7-0.9,1-1.6,0.8c-0.4-0.1-0.6-0.5-0.9-0.9
			l-3.3,1.6l2.3,5.4c-1.6-3.4-3.9-6.5-6.4-8.9c-0.3-0.4-0.3-0.4-0.2-0.8c0.1-0.7,1.4-1.3,2.4-1.1c0.4,0.1,0.7,0.1,1,0.6l-2.8-2.8
			l3.6-7l2.4-0.7l-0.1-5l-1.6-1.5l-0.5-6.6l1.6-0.5c0.1-0.4-0.1-1.2-0.1-1.5l0.1-0.4l0.4,0.1c0.7,0.1,1.3,1,2,1.2l0.9-1
			c-0.2-0.8-2.6-2-2.3-3.5c0.1-0.4,0.1-0.7,0.6-1.4l3.9-0.8l2.4,1.2c1.1,0.2,1.2-0.5,1.4-1.6c0.1-0.4,0.2-1.1,0.3-1.5
			c0.1-0.4-0.2-0.8-0.6-0.9c-0.7-0.1-2.4,0.7-2.5,1.4l-1.8-4.2l2.7-6.4l-2.8-2.8c1.9-1.9,3.6-3.1,6.1-2.6c0,0,0.4,0.1,0.4-0.3
			c0.1-0.7-0.3-2.4-0.9-2.9l-1.9,0.4l0.6-1l-2.9-0.6c-0.4-0.1-0.3-0.4-0.3-0.4c0.1-0.7,1.5-2,1.9-1.9l0.4,0.1
			c0.4,0.1,1.4,0.7,2.1,0.8s1.1,0.2,1.2-0.5l-3.5-3l2.2-1.9l4.1,1.6l-2.5-4.3l-1.9,1.9l-0.7-2.1l6.2-3.4l-0.1-1.2l5.6-2l-2.1-2.3
			c0.1-0.7,0.6-1,0.9-1c0.4,0.1,0.6,0.5,1.4,0.7l2.7-0.6l3.4,1.4l-1-4.4c0.9-0.6,1.3-0.9,1.6-0.8c1.1,0.2,1.7,2.6,2.8,2.8
			c0,0,0.4,0.1,0.4-0.3l1.1-3.6l3.1,1l2.7-2.5c-1.9,0.4-4.1,0.3-5.6,0.1c-1.1-0.2-1.7-0.7-1.7-0.7l1.1-1.7l7.4-5.4l2.8,2.8l-4,1.5
			l0.1,1.5l10.4-2.2l-1.4-2.2l2.7-2.5l-1.5-1.8l9.7-3.8c-0.3-0.4-0.3-0.4-0.2-0.8c0.2-1.1,1.9-1.9,2.6-1.8c0.4,0.1,0.6,0.5,0.9,0.9
			l8.4-1.4l3,1.7l1.7-2.7l6.3,5.5l-1.2,0.5l-0.3,1.5c2.9,0.2,7.4,0.3,9.9-1.5l1.8,3.8l1.4,0.7c0.4,0.1,0.8-0.2,0.9-0.6
			c0.1-0.7-0.6-2.8-0.3-3.9l0.1-0.4l4.6,0.9c0.5,1.2,2.6,2,3.2,2.5l1.9,0l0.7,4l4.6-2.5l1.8,1.9l5.1-1.3l8.4,8.2l-5.7-1.1l-0.4,1.8
			c-0.1,0.4,0.3,0.4,1,0.6c0.4,0.1,1.1,0.2,1.5-0.1l3.6,2.3l0.1,3.1l0.1-0.4l0.1-0.7c3.3,2.2,6.5,4.4,9,7.1l-0.7,3.3l-1.2-1.4
			l-7.3,3.2l-0.1,0.3c-0.2,0.8,0.3,1.6,1,1.8c0.8,0.2,1.3-0.1,1.7-0.4l3.1,2.9l1.8,0.4l0.6-3l1.1,1.8l4,0.4l-0.6,1l0.9,4.8l2.1,0.4
			l2,3.1l-2.7,0.6l-2.6-1.7l-1.9,2.3c-0.2,1.1-0.2,1.1,0.1,1.2c0.4,0.1,1.3-0.9,2-0.8l0.1,1.5l0.4,0.1c0.4,0.1,0.8-0.2,0.8-0.2
			c0.4,0.1,1,0.6,2.3,1.6c0.4,0.1,0.7,0.1,1.1,0.2c1.1,0.2,2.6-0.2,3.7,0c0.7,0.1,1.4,0.7,1.8,1.9l3.9-1.1l-0.6-0.9l2.8,2.5
			c0,0,0.2,0.8,0.6,0.9c0,0,0.4,0.1,0.4-0.3l3.1,2.9l0.4,1.6c-2.6-0.1-7.3,1.2-7.9,4.2c-0.1,0.4-0.1,0.7,0.1,1.5l-1.3,2.8l-5.1-2.5
			l-1.3,0.9l-3-3.7l-3.6,1.2l-2.1-4.3l5.2-3.6l0.1-0.4c0.1-0.4,0.1-0.4-0.3-0.4c-0.4-0.1-1.5,0.1-1.5,0.1l-0.7-2.1l-3.6-0.7
			l-0.3,1.5l-2.2-0.1l-3.1-4.8l6.7-3.7c-0.4-0.1-0.7-0.1-0.7-0.1c-1.1-0.2-2.4-0.9-2.3-1.6l-4.4,1.8c0.1-0.7-0.2-0.8-0.6-0.9
			c-0.7-0.1-1.5,0.1-1.6,0.5l-0.1,0.4l-5.3-4.9c-0.5,0.7-3.2-0.6-3.4,0.5c0,0-0.1,0.4,0.3,0.4l-5.6-1.5l-0.6-4.7l6.1,0.8l1.2-0.5
			l-3.4-5.3c-3.2,1.3-7,1.7-10.7,1.7l-3.8-3.1l-2.8,1l-2.7-3.2l-6.8,0.6l-7.4,5.8c0.1-0.7-0.8-3.2-1.9-3.4c-0.4-0.1-0.4-0.1-0.8,0.2
			l1.4-3.2c-2.8,1-6.7,0.2-9.3,0.1l1.2,1.4l-3.7,3.9l-1.6-3c-1.3,0.9-3.1,0.9-4.6,0.6c-1.1-0.2-2.1-0.4-2.9-0.6l0.1-0.4
			c0.1-0.4,0.6-1,0.6-1.4l-3.5-3l-0.4-0.1c0,0,0,0-0.1,0.4c-0.1,0.7-0.4,1.8-0.4,2.2l-2.5,1.4l-1.6-3.4l-0.4,1.8l2,6.5l-2-3.1
			c-0.4,0.3-0.8,0.2-1.1,0.2c-1.1-0.2-2.3-1.6-2.5-2.4L492,187l-3-1.7l-2.8,2.9l2.4,1.2l-3.2,8.6l-2.9-2.1c-0.1,0.4-0.9,0.6-1.6,0.5
			c-1.1-0.2-2-1.2-1.8-2.3l-3.9,3.1l1.9-0.4l-0.1,0.7c-0.9,2.5,0.8,5.1,2.8,6.7l-1.6-1.1c-1.4-0.3-1.9,0-1.9,0.4
			c-0.3,1.5,2.1,4.3,1.9,5.4c0,0-0.1,0.4-0.4,0.3l-3.9,0.8c0.3,0.4,0.6,0.9,0.9,0.9c0.7,0.1,1.9-0.4,3-0.2c0,0,0,0,0.4,0.1l-3.4,2
			l-4.8-3.6l-1.9,0.4l2.6,4l2.8,0.9l-2.9,1.4l-3-1.7l4.8,7.5l-2.5-0.5l-0.6,1l2.3,5.4l-7.2,4.7l-0.4-0.1l0.5-2.6l-2.1,1.1
			c-0.1,0.4,6.3,3.6,8.1,3.9l0.4,0.1c0.6,2.8,2.5,6.2,1.9,9.2c-0.1,0.4-0.1,0.7-0.3,1.5l2.9,0.2l-0.9,2.5c0.3,0.4,0.6,0.9,0.6,0.9
			c1.1,0.2,2.4-2.6,4.1-2.2c0.4,0.1,0.4,0.1,0.6,0.5l2.3,7l0.5-0.7l2.9,0.6l-0.4,0.3l-0.6,1.4l2.3,3.1l1.6-0.8l4,4.2l3.1-2.5
			c0.4,0.1,0.4,0.1,0.4,0.1c1.1,0.2,1.6,1.5,1.4,2.2c-0.1,0.4-0.6,1-0.9,1l5,4.8l1.4-1.6l-2.3-3.1l5.1,2.2l-1.9,2.3
			c-0.1,0.7-0.2,1.1,0.1,1.2c0.4,0.1,1.4-1.6,1.8-1.6c1.4,0.3-0.7,3.7,0.7,4l1.4-1.3l3.5,1.1c0.7,0.1,1.3-0.9,1.4-1.6l0.1-0.4
			l-5.3-1.4l0.4-4.1l1.1-0.2l2.3,5.1c0.4,0.1,0.7,0.1,1.1,0.2c1.1,0.2,2.2,0.1,2.4-1.1l0.1-0.4l2.8,4.8l1.2-2.1
			c1.4,0.3,3.5,1.1,3.9,2.7l3.9-0.8l2.2,2l-2,4.6l0.5,1.2c1.7-3.1,5.6-3.9,8.4-3.3l1.7,2.6l1-1.3l2.4,2.8l3.9-1.1l-0.4,4.1l2.8-1
			l1.5,1.8l-3.1,0.9l0.6,4.7l3.4-0.5l0.3,2.4l5-0.9l6,5l2.9-1.4l4,10l3.1-0.5l2.3,5.1l3.1,1l1.6-0.8l0.4,1.6l2.3,3.5l1.4-1.6
			l1.6,1.1l1.8,3.8l0.4,0.1c1.1,0.2,1.9,1.5,1.8,2.3c-0.1,0.4-0.1,0.7-0.5,0.7l3.2,6.4l2.3-0.3c0.7,0.1,0.8,1.7,0.6,2.8
			c-0.2,1.1-0.7,1.8-1.5,2l1.4,4.1l-3.2-2.5l-1,3.3l5.3,3.3c0,0,0,0-0.1,0.4c-0.1,0.7-2.5,1.4-2.8,2.9c-0.7,3.3,4.5,5.1,7,7.9
			l-2.4,3c0,0.1,0,0,0,0.1c1.4,0,1.3,0.5,1.2,0.9c-0.2,1.1-1.2,2.4-1.4,3.5c-0.1,0.4-0.1,0.4,0.2,0.8l1.7,2.6l0.2-1.1
			c0.2-0.8,0.9-1.4,1.7-1.2l0.7,0.1l0,3.8c-0.4,0.3-0.9,0.6-1.6,0.5c-1.8-0.4-4.3-2.8-5-2.9l-1.3,0.9l5.8,6.1l1.6-0.5l-4.8,3.7
			c0.3,0.4,0.2,0.8,0.2,0.8c-0.1,0.7-3.4,0.1-4,1.5l3,5.2l-2.7,4.1c0,0,0.4-0.3,0.8-0.2c0.7,0.1,1.4,0.7,1.7,0.7
			c0.7,0.1,1.1-0.2,1.3-0.9c0,0,0.1-0.4-0.2-0.8l-5.9,5.7l1.7,4.6c-0.4-0.1-0.4-0.1-0.4-0.1c-1.1-0.2-2.6,0.2-2.9,1.4
			c0.3,0.4,1.5,1.8,1.3,2.9c-0.1,0.7-1,1.3-3.3,1.6l1.6,3.4l-4.5,4.1l-1.4,1.3l-0.6-0.5l-0.4-0.1l1.3,2.6l-4.1,1.9l-0.8-3.2
			l-3.2,3.2c-0.4-0.1-1.4-0.7-2.1-0.8c0,0-0.4-0.1-0.4,0.3l1.3,2.9l3.4-2.4l-2.2,3.8l1.7,0.7l-3.1,2.5l-0.5,2.6l-1.3-4.5
			c-1.1,0.2-1.2,0.5-1.3,0.9c-0.1,0.7,0.1,1.2,0.1,1.5l-2.9-0.2l0.1,1.5l-1.7,6.9c-0.1,0-0.1,0-0.2,0.1c-1-0.6-3.2-0.1-3.3,0.8
			c-0.1,0.4-0.1,0.7-0.1,0.7l-2.9-2.1l-2.4,0.7l2.7,3.2l-0.4,1.8l-1.5,0.1c-0.3-0.4-1.1-1.8-1.8-1.9c-0.4-0.1-0.7-0.1-1.2,0.5
			l-2.1-2.7l-3,2.1l1,0.6c-5.2,3.6-11.9,6.1-16.6,5.2l-1.8-1.9c0.1-0.7,2.2,0.1,2.4-1.1l-1.4-0.3l-2.9-2.1L530.4,428z"/>
		<linearGradient id="SVGID_9_" gradientUnits="userSpaceOnUse" x1="1449.9594" y1="488.2851" x2="1449.9594" y2="142.121">
			<stop  offset="0.2" style="stop-color:#FFFF01"/>
			<stop  offset="1" style="stop-color:#FFA800"/>
		</linearGradient>
		<path class="st10" d="M1505.7,279c0-0.4,1.2-0.7,1.2-1.1c0-0.4-0.7-0.9-2.9-1.1c-1.1-0.1-1.4-0.9-1.3-2.1c0.1-0.8,0.1-1.6,0.2-2
			l0.4-0.4c0,0,0.3,0.8,0.7,0.9l1.8,1l4-2l0.4-0.4c0-0.4-0.7-0.9-1.4-0.9c-0.4,0-0.8-0.1-1.2,0.3l4-6.4l0.4-4
			c-0.1,1.6-2.2,3.4-3.7,3.3c0,0-0.4,0-0.7-0.5l-0.4-4.4l3.9-5.2l-1.4-4.9l4.9-4.3l-3.9-2.7l1.8-3l-2.7-3l4.2-4.4l1.1,0.1l-1.7-6.1
			l2-1l-2.2-5.4l4.5-4l0.1-1.6l-0.3-0.4c-0.4,0-0.8,0.3-1.2,0.3l-3.1-3.1l1.9-3.8l-1-6.1l4.7-10.3c0.4,0,0.4-0.4,0.4-0.4
			c0.1-1.2-0.9-2.5-2-2.6c-0.4,0-0.4,0-0.8,0.3l3.9-13.6l0.9,2.1c0.7,0.1,1.6-0.7,1.6-1.4c0-0.4,0-0.4,0.1-0.8l-3.4-4.7l4.2-5.2
			l2.2,1l1.2-0.3l-2.3-3.8l3.3-3.3l0.4,0c2.2,0.2,5.4-1.5,6.9-1.4l0.1,2.8l2-1.8c7.8,1.5,6.6,6.6,10.5,9.7l1.9-0.2l3.2,5.9l-2,5
			c0.4-0.4,0.4-0.4,0.8-0.3s0.7,0.5,0.6,1.3c-0.1,0.8-1,2.7-1.1,3.9c0,0.4-0.1,0.8,0.7,0.9l0.4,0l-0.5,5.1l-3.5,5.3
			c0.7,0.5,1,1.3,0.9,2.1c-0.1,1.2-1.4,3.1-2.5,2.6c1.3,2.5,1.3,6.1,1.1,9.3c-0.2,2.4-0.8,4.3-0.9,6.3l-3.9,6l2.2,0.2l-3.3,2.9
			c1.5,0.5,1.7,2.1,1.6,3.3l0,0.4l-2,1c0.8,4.1,1.5,8.9,3.4,12.3c-0.1,0.8-1.3,2.3-2.5,2.2c-0.4,0-0.8-0.1-1.1-0.5l-1.5,4.2l2.5,5.4
			l0,0.4c0,0.4-0.4,0.4-1.2,0.3c-0.8-0.1-1.9-0.2-2.2-0.6l0.4,4l2.3-0.6c-0.7,3.5-2.5,7.3-2.9,11.3c-0.1,0.8-0.1,1.2-0.2,2l3.1,3.9
			c-0.4,0.4-0.8,0.7-1.2,0.7c-0.4,0-1.1-0.9-1.8-1l-2,1.4l1.7,6.1c-2.1,2.6-4,6.8-4.4,10.8l0,0.4l3.7,5.1l-2.9-1.9l-0.6,2.7
			c1,1.3,2,3.4,1.8,5.3c-0.1,1.2-0.6,2.3-1.8,3c0.7,0.5,1,1.3,0.9,2.1c-0.2,2-2,5-2,5l-3.6,2.5l2.7,3.4l2.2,0.2l-2,1
			c0.3,0.8,2.9,1.9,2.8,2.6c-0.2,2-4.7,2.4-4.9,4.3c-0.1,0.8,1.2,3.3,1.1,4.5c-0.1,0.8-0.5,1.5-1.6,1.4l-0.8,0.7l4,1.2
			c-0.7-0.1-1.2,0.7-1.3,1.5s0.2,1.6,1,1.7c0.4,0,0.4-0.4,0.8-0.3l-3.9,0.8l-0.2-1.6c-0.7-0.1-1.2,0.7-1.3,1.5s0.2,1.6,0.2,2
			l1.5,0.5l1.2-1.1l2.9,1.5l-3.6,2.1l-0.4,4l3,4.3c-0.8,0.7-2.4,1.4-3.5,1.3c-0.4,0-0.8-0.1-1.1-0.5c0.6,2,1.1,4.1,1,6.1
			c-0.1,1.2-0.6,2.3-1.1,3.5c0.3,0.4,0.7,0.5,1.1,0.5c0.4,0,0.7,0.1,1.1,0.1l-0.2,2.4l2.3,3.8c-0.4,0-0.7-0.5-0.7-0.5
			c-1.1-0.1-2.4,1.4-2.5,2.6c0,0.4,0.3,0.8,0.6,1.3l-4.5-0.4l1.9,4.2l1.9-0.6c1.1,0.1,1.7,2.5,2.4,2.6c0,0,0.4,0,0.4-0.4l-2.6,3.4
			l-1.1-0.9l-1.6,1.4l4.1,4.4l-3.7,3.6c0.4,0,0.7,0.1,0.7,0.1c1.9,0.2,2.2,4.6,3.1,7.1c-3.3,3.3-4.9,8.7-6.1,13.4l4.5,0.8l-3.9,1.2
			l0,0.4c-0.1,1.6,1,1.7,2.1,1.8c0.7,0.1,1.1,0.1,1.5,0.1l0.3,0.4c-0.1,0.8-1.3,2.3-1.4,2.7c0,0.4,0,0.4,0.3,0.4l-1.4,3.5l-4.2,0.8
			l2.7,8.2l-2.8,1.3l1.1,4.1c-0.4,0.4-0.8,0.7-0.9,1.5c-0.1,0.8,0.2,2,1.3,2.1l-3.7,3.3l-1.4-1.3c-1.5-0.1-1.9,0.6-2,1.4
			c-0.1,1.2,0.1,2.8,0.1,3.2c0,0.4,0,0.4,0,0.4s-0.3-0.4-0.7-0.9l-1.8-1l-0.6,1.9l1.4,5.7c-0.7-0.5-1.4-0.9-2.6-1
			c-1.1-0.1-2.3,0.2-2.7,1l-7.8-1.5l-3.3-5.1l1-2.3l0.4,0c0.4,0,1.4,1.3,1.8,1.4l1.2-1.1c0.1-1.2-1.3-2.1-2.1-2.2
			c-0.8-0.1-1.1-0.1-1.2,0.3c-0.9-2.5-3.5-6.7-3.3-9.5c0.1-0.8,0.5-1.2,0.9-1.5l-6.1-3.7c0.1-1.2,1.8-3.4,3.3-3.3
			c0.4,0,0.7,0.5,0.7,0.9l1.8-7.8c-1.3-2.5-1.4-5.3-1.1-8.5l0.1-1.6c0.1-1.2,1.8-3.4,2.3-4.6l-4.1-0.8l-2.4-2.6l3.1-0.5l-2.4-3
			l3.4-3.7c-0.8,0.7-1.3,1.9-1.4,2.7c-0.1,1.2,0.2,2,2.1,2.2l2-1l-1.4-0.9l1.5-3.9l-1.6-2.9l2.2-3l-3.7-1.1l6.2-5.4l-5.6-5.3
			c0.4,0,0.7,0.1,1.1,0.1c1.9,0.2,2.4-1,2.4-1l-1.7-6.1l-1.9-0.2c-0.4,0.4-0.4,0-0.3-0.4c0-0.4,0.1-0.8,0.5-1.2l1.7-2.6l-1.8-5.3
			l3.3-3.3l-3.6-2.3l1.5-3.8l6.5,3.4l1.9,0.2l-6-4.1c0.4-0.4,0.4-0.8,0.5-1.2c0.1-1.2-1.3-2.1-1.2-2.9c0,0,2.8-1.7,3.3-2.9l-2.3-4.2
			l2.9,1.9l2.1-1.8l-2.8-2.6l3,0.7l1.2-1.1c-2.5-1.8-5.6-5.3-5.2-8.8c0.1-0.8,0.1-1.6,1-2.3l-3.2-2.3l0.1-1.6l3.6-2.1l-0.9-2.9
			c0.4-0.4,0.8-0.3,1.2-0.3c1.5,0.1,3.3,1.5,3.6,1.5c0.8,0.1,1.2-1.1,1.3-1.9c0-0.4,0.1-0.8,0.1-1.2l-3.7-1.1l-2.4,1.4l0.3-3.6
			l3.5-1.7c0-0.4-0.7-0.9-1.1-0.9c-0.8-0.1-1.5,0.3-1.9,0.2c-0.4,0-0.4,0-0.3-0.4c0-0.4,0.8-0.7,0.9-1.5l-9-5.2l-2.7,0.6
			c0.4-0.8,0.9-1.1,0.9-1.9c0.1-1.2-0.9-2.9-1.9-3.8c0.8-0.3,1.5-0.3,2.3-0.2c0.7,0.1,1.1,0.1,1.9,0.2c0.7,0.1,1.2-0.3,1.3-1.9
			l-1.5-0.5l-2,1.4l-4-1.6c-0.4,0.4-0.4,0.4-0.8,0.3c-1.1-0.1-1.4-1.3-2.5-1.4l-2.4,1.4l3.2,2.7l0.7,0.5l-1.2,1.1l-5.7-4.1l1.2-0.7
			l-1.1-0.9l-2.4,1l-3.7-1.1c-1.2,0.3-1.6,1.1-1.7,1.8c-0.1,0.8,0.2,1.6,0.6,1.6c0.4,0,0.4,0,0.4,0c-2.4,1.4-4.3,2-5.5,1.9
			c-2.6-0.2-3.2-2.7-4.3-2.8c0,0,0,0-0.4,0.4l-8.3,3.6l-1.4-1.7l-7.3,1.3l-1.5-0.5l-9,3.2c-1.4-0.9-3.9-3.1-5-3.2
			c-4.5-0.4-8.3,4-9.8,7.9c-0.7-0.1-1.1-0.1-1.5-0.1c-3.7-0.3-6.9-3-10.3-3.3c-0.8-0.1-1.1-0.1-1.5-0.1l-0.8,8.7l-5.4,1.1l2.3,4.2
			l-1.2,0.3l-4.1-4.8l-1.5,4.6l-0.2-1.6l-1.5-0.1l-4.4,3.2l1.4,1.3l0.7,4.8c-1.8,3-4.8,6.7-7.9,8.1l1,1.3c-0.4,0.8-2.1,1.8-2.1,2.6
			l1.7,2.1l-1.6,9.8l2.7,3l-1.6,1.1l2.5,5.4l-1.1-0.9l-1.1,4.3l-2.9-1.1l-1.9,4.2l-1-1.3l-1.2,0.3l2.8,2.6l-3.7,2.9l5.2,5.2
			c-0.4,0.8-1.3,1.5-2.4,1.4c-0.4,0-0.7-0.5-0.7-0.9l-4.3,5.6l-0.1,1.6l1,1.3l3.6-6.4l3,9l2.2,0.2l1,1.7l-6-0.9
			c-0.1,0.8-1.4,6.7-2.1,7c-0.8-0.1-1.4-1.7-2.1-1.8l-1.6,0.7l1.5,0.5l1.9,4.5l1.2-0.3l3.1,3.9l-1.5-0.1l-0.4,4.3l-8.5,2l1.8,0.6
			l1.2,7.7l-1.2,0.7l-0.7,7.5l-2.2-0.2c-0.4,0-0.4,0-0.4,0c0,0.4,1.8,1,1.7,1.7c-0.2,2.4-0.3,3.2-0.7,3.1c-0.4,0-0.7-0.9-1.8-1
			l-2.3,0.2l0.4,4l-1.8-0.6l-5,1.1l-4.3-2.4l-0.3-0.4c0.1-1.2,1.7-2.2,2.5-2.2l-3.9-2.3l-2.7,0.6l-2.9-1.9l1.5-3.9l3.2,2.7l5.8-1.1
			l-1.7-2.1c-1.5,0.3-3.4,0.5-4.9,0.4c-1.5-0.1-2.6-0.2-3.7-0.7l0.6-2.3l-3.5-3.5c1.1,0.1,2-1,2.1-2.2c0-0.4,0.1-0.8-0.6-1.3
			l3.4-3.7l2.1,1.4c1.9,0.2,0.8-4.3,2.3-5l-2.6-4.2l-1.2,0.3l-0.4,0c0-0.4,0.8-0.7,0.9-1.1l-4.1-0.8l1.1-3.5l-1.9-4.5l2.5-2.6
			c0.4-0.8-1.7-1.7-1.7-2.1c0,0,0,0,0-0.4l3.9,2.7l1-3.1l-3.2-2.7l3.5-1.3l2.9,1.1l0.9-1.5l-4.6-3.2l0.5-5.5l1.5,0.1l-0.3-4.8
			l-4.7-2.4l2.5-2.6c-0.3-0.8-0.9-2.9-0.7-4.4s1-2.7,2.5-3l-1.6-3.3l5.1-2.3l-3.6-1.9l8.3-4l0.5-1.2l-2.1-2.2l-0.9,1.1l-0.6-1.6
			l-4.2-3.6c0.4,0,0.4,0,0.7,0.1c0.7,0.1,2.4-1,2.4-1.8c0-0.4,0-0.4,0.1-0.8l4.3-1.2c0.4,0,0.4-0.4,0.4-0.4c0.1-0.8-0.6-1.3-1.8-1.4
			c-0.7-0.1-1.5,0.3-1.6,1.1c0,0,0,0,0.3,0.4l-7.1-5l3.4-0.5l0.6,2c1.1,0.1,1.9-0.6,3.1-0.5c0.7,0.1,1.1,0.5,1.8,0.6l-3.7-4.7
			l-2,1.4l-2.9-1.5c2.5-2.2,3.7-3.6,6.7-3.4c0.7,0.1,2.3-5,2.4-5.4l-1.5-0.1l-0.2-1.6l0.7,0.5l1.8,1c0.4,0,0.3,0.4,0.7,0.5
			c1.1,0.1,2.7-0.6,3.5-1.3l-6.4-4.2l-5.7,0.3l-0.9-2.5l-4.6,4.8l-2.6-0.6l5.5-6.3l3.4,0.3c0.1-1.2-0.6-1.6-1.4-1.7
			c-1.1-0.1-2.7,0.6-3.8,0.5l0.6-1.9c-0.3-0.8-1.8-1-2.1-1.8l0.9-1.1l-1.1-0.5l1.1-3.5l3.2,2.3l1.9-0.6c-3.3-1.5-6.3-5.7-6.7-9.4
			l2.3-0.6l6.3-7.4c0.3,1.2,1.4,5.7,2.9,5.8l1.8-3.4l2.9,1.9l1.3-1.9c-0.6-1.6-3.5-7.1-3.3-9.5c0,0,0.4-0.4,0.4-0.8l3.4-0.1
			l-0.9-2.1l1.9-0.2l-0.2,2l1-2.3l-2.6-5l-1.5,0.3c-0.7-0.1-2.1-1.8-3.6-1.9c-0.4,0-1.2,0.3-1.6,1.1l-4.4-1.6l3.1-4.9l1.7,1.7
			l0.9-1.1l-5.1-1.7l6.4-4.2l0-0.4c1.9,0.2,2.1,1.4,2.1,2.2c-0.1,1.2-0.6,1.9-0.6,2.7c0,0.4-0.1,0.8,0.7,0.9c0.4,0,0.7,0.1,1.1,0.1
			l-4.4,2.4l1.7,2.5l5.3-4.7l-1-1.7l6.1-4.6l0.5-1.5l-1-1.3l-3.6,2.1l-3.2-1.9l2.2-3.4l2.9,1.9l3.2-1.7c0.1-0.8-2.5-1.8-2.4-2.2
			l1.2-1.1l-8.1-2.7l1.9,0.2l2.4-5.8l1.9,0.2l0.4,0c0,0.4-0.9,1.1-1,2.7l0.9,2.5c1.5,0.1,1.9-0.6,2-1.4c0.1-0.8-0.2-1.6-0.2-2.4
			c0-0.4,0.5-1.2,1.2-1.1l0.4,0l-6-4.9l0.6,2l-2.1,1.8l-2.3-4.2l4.6-0.8l1.8,1c0.4,0,1.5-0.3,1.6-1.1c0,0,0,0-0.4,0
			c0-0.4,0-0.4,0.1-0.8c0-0.4,0.1-0.8,0.4-0.8l-5.1-6c-0.3-0.4-0.3-0.8-0.3-1.2c0.1-0.8,0.4-0.8,0.8-0.7c1.1,0.1,2.2,1,2.1,1.4
			c0,0.4-0.4,0.8-0.8,0.7l5.5-6.3l-0.7-4.4l-3.6-2.3l-2,1.4l-3.4-3.9l3.2-2.1l0,0.4c-0.1,1.6,0.8,3.3,1.9,3.8l2-5.8l5.5-2.7
			l-0.2-1.6l-3.1,0.9l-3.9-3.1l2.8-6.1l-3.1-7.8c0-0.4,0.4-0.4,0.8-0.3c1.1,0.1,2.2,1,2.5,1.8l2.2-3.4l-5.9-1.7l-0.6,2.3l-2.2-0.2
			l1.1-3.9c0.4,0,0.4,0,0.7,0.1c1.5,0.1,3.4-0.1,3.9-0.8l-0.6-1.6l2.9-2.5l2.4,2.2l1.9,0.2l-3.1-3.9c-0.4,0.4-0.8,0.7-1.2,0.7
			c-1.1-0.1-2.5-1.4-2.9-1.9l-2.5,3l-2.3-3.8c1.3-2.3,4.3-1.2,4.5-3.6c0-0.4,0-0.4,0.1-0.8l3.4,3.9l0.5-1.2l-1.4-4.9l-2.3,0.2
			l0.2,1.6c-2.2-0.2-2.9-1.5-2.7-3.4c0-0.4,0.4-0.4,0.4-0.4c0.4,0,1.1,0.5,1.4,0.9l5.1-1.9c0.3-3.2,4.4-6.8,6.4-8.6l2.2,1
			c0.4,0,1.3-2.3,1.7-2.2l1.4,1.7c0.3,0.4,0.7,0.5,1.5,0.5c0,0,0.4,0,0.4-0.4l-1.7-2.5l-6.1,0.3c0.5-1.5,1.3-1.9,2-1.8
			c0.4,0,1.1,0.1,1.9,0.2c0.7,0.1,3.4-0.5,3.5-1.7c0-0.4,0-0.4,0-0.4l-1.9-3.8l5.5-7.1l2.3,3.4l-2.7,0.9l0,0.4
			c-0.2,2,0.4,4.4,1.9,4.5c0,0,0,0,0.4,0l-3.6,2.1l0.2,1.6l11.9-2.5l6.2,6.9c-1.3,1.5-2.3,4.2-2.5,6.5c-0.1,0.8-0.2,2,0.1,2.8
			l-1.6,1.1l2.4,2.2l4.7-1.6l3.5,3.1l-3,3.7l1.6,3.7c-1.7,1.8-3.4,4.1-3.6,6.4c-0.1,1.2,0.2,2.4,1.5,4.1l-2.5,2.6l-3.1-3.5
			c-0.8,0.3-0.8,0.7-0.9,1.1c-0.1,1.6,3,3.9,2.4,7l0,0.4l-6.4-0.6l4.8-2.8l-0.7-0.1c-3.4-0.3-6.1,0.6-6.3,3
			c-0.1,1.2,0.5,2.8,1.8,4.9l-4.3,10l-3.8,0.1c0.3,1.2,1.6,3.3,2.7,3.4c0.4,0,0.4,0,0.8-0.3l-3.8,4l-2,1c0.4,0,0.8-0.3,1.9-0.2
			l1.8,1l-4,2.8l3.5,3.1l1.2-1.1l-1.7-1.7l5.5-2.3c0.3,0.8,0.3,1.2,0.2,1.6c-0.2,2.4-3.6,2.1-3.6,2.5l1.4,1.7l-3.6,2.1l1.7,2.5
			l3-0.1l-2.1-1.8l0.9-1.5l2.2,0.6c0.3,0.4,1.1,4.1,1,6.1c-0.1,0.8-0.5,1.5-0.9,1.5l1,5.7l-4.4,7.2l-1.9-0.2l2.2,4.6l-1.7,2.2
			l4.1,5.1l-2.7,0.9c-0.1,1.6,0.6,2,0.9,2.1c1.1,0.1,2.4-1.4,2.8-1.7l4.7,6l-0.1,1.6c-0.1,0.8-0.1,0.8,0.3,0.8
			c0.4,0,1.2-0.3,1.2-0.7c0-0.4-0.3-0.4-0.3-0.4l4.6,3.2l-1.6,1.4c-0.1,0.8,0.3,0.8,0.7,0.9c0.7,0.1,2.3-0.6,2.7-0.6
			c1.1,0.5,6.9,3.4,7.2,4.2c1-2.7,4.1-4,6.8-3.8l3.1,7.8l1.4,0.9l5.7-0.7c0.3,0.4,1.8,1,3.7,1.1c2.2,0.2,4.9,0,5-1.1
			c0-0.4-0.3-1.2-1-1.7l8.1,6.7l-1.7,2.6l4.2-5.2c0.6,1.3,3.9,3.1,6.1,3.3c1.1,0.1,1.9-0.2,2.4-1l3.1,3.1l6.2-2.2l-0.3,3.2
			c3,0.7,5.8,2.9,7.4,5.4l3.4-0.5l-0.9,1.5l4.2,3.2l3.9-0.8l-3.1-3.1c0.4-0.4,1.2-0.3,1.5-0.3c0.8,0.1,1.8,1,2.9,1.1l-0.6-1.3
			l-1-1.7l1.9-4.2c0.6,1.3,1.4,1.7,1.7,1.7c0.7,0.1,1.2-0.3,1.5-0.3c0.8,0.1,0.7,0.5,0.6,1.6l-1.9,0.6l3.9,3.1l-0.1-2.8l2.2-3
			l2.8,2.6l-2.7,4.5l-1.5-0.5l-1,3.1c0,0.4,0.7,0.5,1,1.3c0.3,0.4,0.2,1.6,0.2,2.4c0,0.4-0.1,0.8-0.1,1.6l1.1,0.1
			c0.8,0.1,4.4-2.8,7.4-2.5c0.4,0,1.9-0.6,2-1.4c0,0,0-0.4-0.3-0.4l-3.2-2.7l-1.6,1.1l-3.3-1.1l2.2-3l3.5,2.7l4-2l0.2-2
			c0.2-2-1.9-4.2-3.4-4.3c-0.4,0-0.4,0-0.8-0.1c0,0.4,0,0.4,0,0.4c0,0.4,1,1.7,0.9,2.1C1506,279.5,1505.6,279.4,1505.7,279z"/>
		<linearGradient id="SVGID_10_" gradientUnits="userSpaceOnUse" x1="1229.4164" y1="488.2851" x2="1229.4164" y2="142.121">
			<stop  offset="0.2" style="stop-color:#FFFF01"/>
			<stop  offset="1" style="stop-color:#FFA800"/>
		</linearGradient>
		<path class="st11" d="M1152.6,404.2c3.7,4.1,4.9,4.8,5.6,4.7c1.1-0.1,2.2-1,3.3-1c1.1-0.1,1.9,0.6,2.7,0.6s1.1-0.5,1.8-0.5
			c1.5-0.1,4.7,2.4,4.8,4c0,0.4,0.1,1.2-0.3,1.6l0.7-0.5l-0.1,3.2c1.2,0.7,2.4,1.4,3.5,1.3c3.7-0.3,4.7-2.3,6.2-7.2
			c2,1.4,2,1.4,2.5,3.8c0.4,0.4,0.4,0.8,1.9,0.6c0,0,0-0.4,0.3-0.4c0.3-0.4,0.7-0.8,1-1.3c0.7-0.8,1.4-1.7,2-3.3l-0.3,1.6
			c0.7-0.1,1.1-0.5,1.8-0.5c1.1-0.1,2.7,1,3.9,2.1l0.2,3.2l-2.6,0.2c0,0.4-0.3,0.4-0.3,0.4c1.6,0.7,3.5,0.9,5,2l0.2,3.2l1.1-0.5
			c0.5,1.6,0.9,1.9,0.9,2.3l0.8,0.7l1.8-0.5l0.2,2c0.1,0.8,0.5,1.9,2.1,2.6c0.3-1.6,0.5-2.8,0.9-3.6c-0.4-0.4-1.2-0.7-3.5-1.7
			l3.6-2.3l4.4,4l3.6-1.9l0.5,5.9l-2.4-1.4c-0.3,0.8-0.6,2-1.3,2.9l0.7-0.8c4.4,4,7.2,5.8,11.3,5.5l0.1,1.2c0.1,1.2-1.3,2.5-2.4,3
			c0.1,0.8,0.1,1.2,0.1,1.6l2.2-0.2l2,1.4l0.4,0l2-3.3l4.5-0.3c-1.7,2.1-2,3.3-1.9,4.1l0,0.4c0.1,1.6,0.9,2.3,1.3,2.7l0,0.4l0.4,0
			c0.4,0.4,0.8,0.7,0.8,1.1c0,0.4,0.1,0.8,0.1,0.8l-0.7,1.2c-1.6-0.7-6.6-2.3-7.3-2.2c-0.4,0-1.1,0.1-1.5,0.1l2.1,3l-2.6,0.2
			c-1.5,0.1-3,0.2-5.2,0.8l-0.1-1.6c-0.1-0.8-0.1-1.2-0.1-1.6c-0.4,0-0.7,0.1-1,1.3l-2.7-1.4l-1.3,2.1l-0.6-2.7
			c-0.1-1.6,0.6-2.4,1.3-2.9l0.7-0.5l-0.4-0.4l-0.8-0.3l-1,1.7c-2.3-1-2.7-1.4-5-1.6l0.2-2c-0.4-0.4-0.8-0.3-1.2-0.7
			c-0.4,0-0.8-0.3-0.8-1.1c-0.3,1.2-1,2.1-1.9,4.1l-2.2-3.8l0.4-4l-1.1,0.9c-0.2-2-0.6-3.1-1-3.9l-3.2,2.6c0.8,0.3,1.6,1.1,2.8,1.8
			l-2.3,3.8c-1.5-0.3-2.7-0.6-3.4-0.5c-0.4,0-1.1,0.5-1.8,1.3l-4.7-2.8l-5.5,2l-1-3.1l1.8-0.9c-0.4-0.8-0.9-1.5-1-2.7l-3,0.2
			c-1.6-0.7-2.8-1.8-4-2.9c-0.3,0.4-1.1,0.9-1.8,0.9c-2.7-1.4-4.7-2-8.1-2.6c0.7-1.2,0.6-1.6,0.6-2c0-0.4-0.5-1.2-1.3-2.7l1.4-0.9
			l-0.4,0l-0.1-1.2c-0.1-0.8-0.5-1.2-1.7-2.3l3.2-1.8l-0.4-0.4c-0.4,0-0.4,0-0.7,0.1c-0.7,0.1-3.5-2.1-4.4-2.9l-0.4,0
			c-1.1,0.1-3-0.2-3.2-2.1l-0.1-0.8c0.7-0.5,1.1-0.5,1.5-0.5l0.4,0l0.7-0.1c0,0.4,0.4,0.4,0.8,0.3c0,0,0-0.4,0.3-0.4
			C1156.5,411.1,1154.5,409.2,1152.6,404.2z M1274.7,427l2.7-3.4l0.9,2.4l5.1-3.9c0-0.4-0.4-0.4-0.8-0.4c-0.8,0-1.2,0.9-2,0.9
			l-1.3-2l1.6-0.1c0.8,0,1.9-2.1,2.7-2.2c0.4,0,1.3,1.6,2.1,1.6l0.8-0.9l-5-3.1l-1.9,2.1l-4.4,0.2l1.5-2.1c-0.4-0.8-7.3-2.7-8.5-2.6
			l7-4.4l1.2,0.8l3.5-3.9l3.7,2.3c0,0,0,0,0.4,0c0.4,0,0.8-0.9,0.7-1.7c0-0.8-0.5-2-2.1-2.4l0.9,1.2c0.4,0,0.4,0,0.8,0
			c0.8,0,4.7-1.4,4.7-1c0,0.8,0,1.2,0.1,1.7l1.6,0.8l2.4-1.3l-9.4-4.6l3.5-2.6l-1.2-0.4l0.3-1.7l4,0.3c0.4-0.8,1.6-1.3,2.4-1.3
			c0.4,0,0.4,0,0.8,0l-6.6-2.6l2.4-1.3l-2.4-0.7c-0.8,0.4-1.5,1.7-2.4,1.7l-2.8-0.7l3.8-5.1l-2.8,0.5l-0.1-2.5l5.6-0.2l4.2-7.2
			l2.1,2.4l1.1-1.7l-3.8-3.2l-2.4,1.3l-2.4-0.3l2.8-1.3l-1-4.5l4.6-6.8c0-0.8-1.3-1.6-2.1-1.6c-0.4,0-0.8,0.4-0.8,0.4l-3.7-1.5
			l2.8-1.3l4.9,2.3l3.4-5.1c0-0.4-0.4-0.4-0.8-0.4c-0.8,0-1.6,0.5-2,0.5c-0.4,0-0.4-0.4-0.4-0.4c0-0.4,2.4-1.3,2.3-2.2l-2.1-1.6
			l-6,1.5l0.6-5.8c-0.4-1.2-2.1-2-3.3-1.9c-0.8,0-1.6,0.1-1.6,0.9l0.3-3.7l-3.4-4.8l2.3-2.6l-0.6-4.9c-3-3.6-10.4-3.1-15.2-3.3
			l1.1-3.3c0,0-1.2,0.5-2,0.5c-0.4,0-0.8,0-0.8-0.4l-3.6,2c-0.3,0.1-0.5,0.2-0.8,0.1l-4.8-0.9c-0.3,0-0.5-0.2-0.7-0.4l-2.1-2.2
			c-0.4-0.4-0.9-0.5-1.4-0.3l-0.5,0.3c-0.4,0.2-0.9,0.1-1.3-0.2c-0.7-0.6-1.7-1.5-2.2-1.5c-0.4,0-0.8,0-0.8,0.4
			c-4.9-4.6-5.2,0-5.4-4.8c0-0.2-0.1-0.5-0.2-0.7l-0.7-0.9c-0.4-0.6-1.3-0.7-1.9-0.2l-0.9,0.9c-0.4,0.4-1.1,0.5-1.6,0.1l-1.7-1.2
			c-0.6-0.5-1.5-0.2-1.9,0.5l-0.5,1.1c-0.2,0.5-0.8,0.8-1.4,0.7c-3.6-0.7-6.7-2.2-9.4-4c-0.6-0.4-1.4-0.2-1.7,0.4l-0.8,1.2
			c-0.5,0.8-1.7,0.8-2.2-0.1l-0.1-0.1c-0.4-0.8-1.4-0.9-2-0.4c-1.2,1.1-2.5,2.3-4.3,2.4c-3.2,0.1-3.3-1.5-5.1-2.7
			c-0.4-0.3-0.9-0.3-1.3,0l-0.4,0.2c-0.3,0.2-0.8,0.2-1.1,0l-3.8-1.8c-0.3-0.1-0.7-0.2-1,0l-2.7,1.1l0.7-2.5l-1.7-0.3
			c-0.2,0-0.4,0-0.6,0.1l-2.7,1c-0.4,0.1-0.8,0.1-1.1-0.1l-5.5-3.7c-0.6-0.4-1.3-0.2-1.7,0.3l-0.3,0.4c-0.4,0.5-1.1,0.7-1.7,0.3
			c-0.5-0.3-0.9-0.9-1-1.6c0,0,0.4-0.4,0.8-0.9c-1.5-0.4-3.5-0.9-5.4-0.6c-0.5-0.1-0.9-0.1-1.4-0.2l-5.8-2.9l0.1,1.7l-3.2,0.1
			c-0.7,0-1.3-0.5-1.3-1.2l0,0c0-0.7,0.5-1.3,1.2-1.3l2-0.1c0-0.4-1.3-1.2-2.5-1.1c0,0-0.4,0-0.4,0.4l-4.7-6.4
			c-0.4-0.8-0.8-0.8-1.2-0.8c-0.8,0-1.8,0.6-2.3,1.3c-0.4,0.4-1,0.5-1.5,0.2l-8.2-4.8c-0.4-0.2-0.6-0.6-0.6-1l0-0.7
			c0-0.4,0.2-0.8,0.5-1.1l2.6-1.8c0.4-0.3,0.6-0.8,0.5-1.3l-0.8-3.3c0-0.4-0.4-0.4-0.8-0.4c-0.8,0-2.4,0.9-2.8,1.3l1.4-2.6
			c0.3-0.5,0.2-1.1-0.2-1.5c-2.2-2.3-3.7-5.2-5.3-7.8l2.8-0.1l-1.2-1.7c-0.3-0.5-1-0.8-1.6-0.4c-0.3,0.2-0.6,0.3-1,0.3
			c-0.2,0-0.3-0.1-0.5-0.2c-0.5-0.3-1.1-0.3-1.5,0.1l-1.4,1.2c-0.5,0.4-0.6,1.2-0.2,1.7l3.1,4.3c-2.5-3.2-5.9-6-9.2-7.9
			c-0.4-0.4-0.4-0.4-0.4-0.8c0-0.8,1.1-1.7,2.4-1.7c0.4,0,0.8,0,1.2,0.4l-3-1.9c-0.5-0.3-0.7-0.8-0.5-1.4l1.8-7
			c0.1-0.3,0.3-0.6,0.6-0.8l1.1-0.6c0.5-0.3,0.7-0.9,0.6-1.4l-1-3.9c-0.1-0.3-0.3-0.6-0.6-0.8l-1.2-0.7c-0.3-0.2-0.5-0.4-0.6-0.7
			l-2.1-6.5l1.6-0.9c0-0.4-0.4-1.2-0.5-1.6l0-0.4l0.4,0c0.8,0,1.6,0.8,2.4,0.7l0.8-1.3c-0.4-0.8-3.3-1.5-3.3-3.2
			c0-0.4,0-0.8,0.3-1.7l3.6-1.6c0.3-0.1,0.5-0.1,0.8-0.1l2.4,0.6c1.2,0,1.2-0.9,1.1-2.1c0-0.4,0-1.2-0.1-1.7c0-0.4-0.4-0.8-0.8-0.8
			c-0.4,0-1.1,0.4-1.6,0.8c-0.5,0.5-1.4,0.5-1.9-0.2l-1.1-7.8l1.3-7.5l-3.7-2.3c1.5-2.5,3.1-4.2,5.9-4.4c0,0,0.4,0,0.4-0.4
			c0-0.8-0.9-2.4-1.7-2.8l-2,0.9l0.4-1.3l-3.2,0.1c-0.4,0-0.4-0.4-0.4-0.4c0-0.8,1.1-2.5,1.5-2.5l0.4,0c0.4,0,1.6,0.4,2.4,0.3
			c0.8,0,1.2,0,1.2-0.9l-4.5-2.3l1.9-2.6l4.9,0.6l-3.8-4l-1.5,2.5l-1.3-2l5.8-5.2l-0.5-1.2l5.5-3.5l-2.9-2c0-0.8,0.4-1.3,0.8-1.3
			c0.4,0,0.8,0.4,1.6,0.4l2.8-1.3l4.1,0.7l-2.2-4.5c0.8-0.9,1.2-1.3,1.6-1.3c1.2,0,2.5,2.4,3.7,2.3c0,0,0.4,0,0.4-0.4l0.2-4.1
			l3.6,0.3l2.3-3.4c-2,0.9-4.4,1.4-6,1.5c-1.2,0-2-0.3-2-0.3l0.7-2.1l6.6-7.7l3.7,2.3l-3.9,2.6l0.5,1.6l10.7-5l-2.1-2l2.3-3.4
			l-2.1-1.6l9.4-6.6c-0.4-0.4-0.4-0.4-0.4-0.8c0-1.2,1.5-2.5,2.3-2.6c0.4,0,0.8,0.4,1.2,0.8l8.7-3.6l3.7,1.1l1.1-3.3l8.2,4.2
			l-1.2,0.9l0.1,1.7c3.2-0.5,8-1.5,10.3-4.1l3,3.6l1.6,0.4c0.4,0,0.8-0.4,0.8-0.9c0-0.8-1.3-2.8-1.4-4.1l0-0.4l5.2-0.2
			c0.9,1.2,3.3,1.5,4.1,1.9l2-0.5l1.8,4.1l4.3-3.9l2.5,1.6l5.1-2.7l11.1,6.6l-6.4,0.2l0.1,2.1c0,0.4,0.4,0.4,1.2,0.4
			c0.4,0,1.2,0,1.6-0.5l4.5,1.5l0.9,3.3l0-0.4l0-0.8c4.1,1.5,8.2,3,11.5,5.3l0.1,3.7l-1.7-1.2l-7.1,5.2l0,0.3c0,0.9,0.7,1.6,1.5,1.7
			c0.9,0,1.3-0.4,1.7-0.9l4.1,2.3l2-0.1l-0.1-3.3l1.7,1.6l4.4-0.6l-0.4,1.3l2.2,4.9l2.4-0.1l2.9,2.8l-2.8,1.3l-3.3-1.1l-1.5,3
			c0,1.2,0,1.2,0.4,1.2c0.4,0,1.2-1.3,2-1.3l0.5,1.6l0.4,0c0.4,0,0.8-0.4,0.8-0.4c0.4,0,1.2,0.4,2.9,1.1c0.4,0,0.8,0,1.2,0
			c1.2,0,2.8-0.9,4-1c0.8,0,1.6,0.4,2.5,1.6l3.9-2.2l-0.8-0.8l3.7,1.9c0,0,0.4,0.8,0.8,0.8c0,0,0.4,0,0.4-0.4l4.1,2.3l0.9,1.6
			c-2.8,0.5-7.5,3.2-7.4,6.5c0,0.4,0,0.8,0.5,1.6l-0.7,3.3l-6.1-1.4l-1.2,1.3l-4.2-3.1l-3.5,2.2l-3.4-4l4.6-5.1l0-0.4
			c0-0.4,0-0.4-0.4-0.4c-0.4,0-1.6,0.5-1.6,0.5l-1.3-2l-4,0.2l0.1,1.7l-2.4,0.5l-4.6-4.4l6.2-5.6c-0.4,0-0.8,0-0.8,0
			c-1.2,0-2.8-0.3-2.9-1.1l-4.3,3.1c0-0.8-0.4-0.8-0.8-0.8c-0.8,0-1.6,0.5-1.6,0.9l0,0.4l-7-3.9c-0.4,0.8-3.6,0.1-3.6,1.4
			c0,0,0,0.4,0.4,0.4l-6.5-0.2l-1.8-4.9l6.8-0.7l1.2-0.9l-5-4.8c-3.1,2.2-7.1,3.6-11.1,4.6l-4.9-2.3l-2.8,1.8l-3.7-2.8l-7.2,2.3
			l-6.5,8.1c0-0.8-1.7-3.2-2.9-3.2c-0.4,0-0.4,0-0.8,0.4l0.7-3.7c-2.8,1.8-7.2,1.9-10,2.4l1.7,1.2l-3,5.1l-2.5-2.8
			c-1.2,1.3-3.2,1.8-4.8,1.8c-1.2,0-2.4,0.1-3.2,0.1l0-0.4c0-0.4,0.4-1.3,0.3-1.7l-4.5-2.3l-0.4,0c0,0,0,0,0,0.4
			c0,0.8,0.1,2.1,0.1,2.5l-2.3,2.2l-2.5-3.2l0.1,2.1l3.9,6.5l-2.9-2.8c-0.4,0.4-0.8,0.4-1.2,0.5c-1.2,0-2.9-1.1-3.3-1.9l-0.7,3.7
			l-3.7-1.1l-2.3,3.8l2.8,0.7l-1.2,10l-3.7-1.5c0,0.4-0.8,0.9-1.6,0.9c-1.2,0-2.4-0.7-2.5-2l-3.5,4.3l2-0.9l0,0.8
			c-0.3,2.9,2.2,5.3,4.7,6.4l-2-0.7c-1.6,0.1-2,0.5-2,0.9c0.1,1.6,3.4,4,3.4,5.2c0,0,0,0.4-0.4,0.4l-4,1.8c0.4,0.4,0.8,0.8,1.2,0.8
			c0.8,0,2-0.9,3.2-0.9c0,0,0,0,0.4,0l-3.1,3l-6.1-2.7l-2,0.9l3.8,3.6l3.2,0.3l-2.7,2.2l-3.7-1.1l6.3,12l-2.8,0.1l-0.4,1.3l3.2,4.4
			c0.4,0.5,0.3,1.2-0.1,1.6l-5.9,6.1l-0.4,0l-0.1-2.9l-1.9,1.7c0,0.4,7.7,2.2,9.8,2.1l0.4,0c1.3,2.8,4.3,6,4.4,9.3
			c0,0.4,0,0.8,0.1,1.7l1.6-0.3c0.8-0.1,1.5,0.5,1.4,1.3l-0.1,1.3c0.4,0.4,0.8,0.8,0.8,0.8c1.2,0,1.9-3.4,3.9-3.5
			c0.4,0,0.4,0,0.8,0.4l4.3,6.9l0.4-0.8l3.2-0.1l-0.4,0.4l-0.3,1.7l2.5,2.1c0.5,0.4,1.1,0.4,1.6,0l0.1-0.1c0.4-0.3,1-0.4,1.5-0.1
			l3.7,2.4c0.5,0.4,1.3,0.2,1.7-0.3l2-2.5c0.4,0,0.4,0,0.4,0c1.2,0,2.1,1.2,2.1,2c0,0.4-0.4,1.3-0.8,1.3l5.5,3.2
			c0.6,0.4,1.4,0.1,1.7-0.5l0-0.1c0.3-0.5,0.2-1.2-0.3-1.5l-2.6-2.1l4.4,0.7c0.8,0.1,1.3,1,0.9,1.8l-0.7,1.4c0,0.8,0,1.2,0.5,1.2
			c0.4,0,1.1-2.1,1.5-2.1c1.6-0.1,0.2,4.1,1.8,4.1l0.7-1.1c0.2-0.4,0.7-0.6,1.1-0.5l3.3,0.2c0.8,0,1.2-1.3,1.1-2.1l0-0.4l-5-0.2
			c-0.6,0-1.1-0.5-1.2-1.1l-0.4-3.5l1.2-0.5l3.8,4.8c0.4,0,0.8,0,1.2,0c1.2,0,2.4-0.5,2.4-1.7l0-0.4l4.2,4.4l0.5-1.6
			c0.2-0.6,0.7-0.9,1.3-0.9c1.2,0.1,2.5,0.4,3.4,1.2c0.4,0.4,0.9,0.5,1.4,0.3l2.5-1.1c0.4-0.2,0.8-0.1,1.1,0l1.5,0.8
			c0.5,0.3,0.7,0.8,0.6,1.3l-0.8,4.5l0.9,1.2c1-3.5,4.6-5.4,7.7-5.6c0.4,0,0.7,0.1,0.9,0.3l2.1,2l0.7-1.7l2.7,1.9
			c0.4,0.3,0.9,0.3,1.3,0.1l1.7-0.9c0.8-0.4,1.7,0.1,1.8,0.9l0.1,0.8c0.1,0.9,1.1,1.4,1.9,0.9l0.4-0.2c0.4-0.3,1-0.3,1.4,0.1
			l1.4,1.1l-2.2,1.3c-0.5,0.3-0.8,0.9-0.6,1.5l1,2.7c0.2,0.6,1,1,1.6,0.7l1.2-0.5c0.6-0.2,1.4,0.1,1.6,0.7l0,0c0.2,0.7,1,1,1.7,0.7
			l3.4-1.5c0.3-0.1,0.7-0.1,1,0l7.3,3.6l2.7-2.2l7.6,4.4l3.2-1.4l3.8,4.8l3.6,0.3l1.6-1.3l0.9,1.6l3.3,3.2l1.1-2.1l2,0.7l3,3.6
			l0.4,0c1.2,0,2.5,1.1,2.5,2c0,0.4,0,0.8-0.4,0.8l5.1,6l2.4-0.9c0.8,0,1.3,1.6,1.3,2.8c0,1.2-0.3,2.1-1.1,2.5l2.6,4l-4.1-1.9
			l-0.3,3.7l6.5,2.2c0,0,0,0,0,0.4c0,0.8-2.3,2.2-2.3,3.8c0.1,3.7,6.2,4.3,9.5,6.7l-1.9,3.8c0,0,0,0,0.1,0.1
			c1.5-0.3,1.6,0.2,1.6,0.7c0,1.2-0.7,2.9-0.6,4.2c0,0.4,0,0.4,0.4,0.8l2.5,2.4l0-1.2c0-0.9,0.7-1.7,1.5-1.7l0.8,0l1,4.1
			c-0.4,0.4-0.8,0.9-1.6,0.9c-2,0.1-5.3-1.9-6.1-1.8l-1.2,1.3l7.9,5.1l1.6-0.9l-4.2,5.1c0.4,0.4,0.4,0.8,0.4,0.8
			c0,0.8-3.6,1-3.9,2.6l4.6,4.8l-1.8,5c0,0,0.4-0.4,0.8-0.4c0.8,0,1.6,0.4,2,0.3c0.8,0,1.2-0.5,1.2-1.3c0,0,0-0.4-0.4-0.8l-4.9,7.6
			l3,4.4c-0.4,0-0.4,0-0.4,0c-1.2,0-2.8,0.9-2.7,2.2c0.4,0.4,2.1,1.6,2.1,2.8c0,0.8-0.7,1.7-3.1,2.6l2.5,3.2l-3.8,5.5l-1.1,1.7
			l-0.8-0.4l-0.4,0l2.1,2.4l-3.9,3l-1.7-3.2l-2.7,4.2c-0.4,0-1.6-0.4-2.4-0.3c0,0-0.4,0-0.4,0.4l2.1,2.8l3.1-3.4l-1.4,4.6l2,0.3
			l-2.7,3.4l0.1,2.9l-2.6-4.4c-1.2,0.5-1.2,0.9-1.2,1.3c0,0.8,0.4,1.2,0.5,1.6l-3.2,0.5l0.5,1.6l-0.1,7.9c-0.1,0.1-0.1,0.1-0.2,0.1
			c-1.2-0.4-3.4,0.7-3.4,1.7c0,0.4,0,0.8,0,0.8l-3.7-1.5l-2.4,1.3l3.7,2.8l0.1,2.1l-1.6,0.5c-0.4-0.4-1.7-1.6-2.5-1.6
			c-0.4,0-0.8,0-1.2,0.9l-2.9-2.4l1.2,0.8l1.2,0.4c-4.6,5.1-11.3,9.5-16.6,9.7l-2.5-1.6c0-0.8,2.4-0.5,2.4-1.7l-1.6,0.1l-3.7-1.5
			L1274.7,427z"/>
	</g>
</g>
<g>
	<g>
		<path class="st12" d="M42.5,296.8l14.9,10.7c-12,19.2-14.3,36.8-7,52.8c3.2,6.9,8,13.8,14.5,20.7l33.7,36.5
			c8.5,8.9,15.1,18.4,19.7,28.5c5.4,11.8,7.4,24.4,6.1,37.7c-1.5,13.6-6.2,26.3-14.2,37.9l-15.5-10.4c12.4-20.4,14.2-40.2,5.3-59.6
			c-3.2-7.1-7.8-13.7-13.6-19.8l-33.1-35.9c-4.9-5.4-8.7-9.9-11.5-13.7c-2.9-3.9-5.4-8.3-7.6-13.1C23.4,345.2,26.1,321.1,42.5,296.8
			z"/>
		<path class="st12" d="M218.3,420.6l14.5,40.3l-17.1,6.1l-76.6-213.8c14.5,2.5,27.3,6.9,38.6,13.2c11.5,6.4,21.4,14.6,29.6,24.4
			c8.2,10.2,14.7,21.8,19.4,35c5.7,16,7.9,32,6.5,48C231.7,390,226.8,405.6,218.3,420.6z M168.9,282.9l40.8,113.8
			c7.4-21.7,7.4-43,0-63.8c-3.9-10.9-9.4-20.8-16.5-29.6C186.1,294.7,178,287.9,168.9,282.9z"/>
		<path class="st12" d="M273.4,445.4L207.3,234l35.9-11.2l7.4,16.2l-20.1,6.3l21.9,69.8l24.3-7.6l5.3,16.9l-24.3,7.6l28.4,90.9
			l24.3-7.6l5.3,16.9L273.4,445.4z"/>
		<path class="st12" d="M332,366l15.3,55.9l-17.6,4.8L270,208.1c12.9,2.3,24.8,6.7,35.7,13.3c10.8,6.6,20,14.9,27.5,24.9
			c7.4,10,12.8,21.2,16.2,33.7c6.6,24.1,3.8,47.7-8.3,71c12.9,5,23.6,12.4,32.3,22.1c8.5,9.8,15,21.9,19.3,36.6l-17.6,4.8
			c-3.3-11.5-8.5-21.5-15.8-29.9C351.9,376.3,342.9,370.2,332,366z M296.9,237.6l28.7,105.2c9.8-18,11.9-37.2,6.3-57.5
			C326.3,264.8,314.7,248.9,296.9,237.6z"/>
		<path class="st12" d="M119.1,264.3l44.4,107.6c13.7,33.2,22,57.7,24.9,73.6c5,26.3,2.4,41.5-7.7,45.6
			c-11.1,4.6-24.7-6.1-40.8-32.1c-7.3-11.5-17.5-33.1-30.5-64.7L65,286.6l17.1-7l44.4,107.6c13.4,32.4,18,42.4,25.2,55.4
			c7.5,14,13.1,20.3,16.9,18.8c3.7-1.5,3.5-9.4-0.6-23.6c-4.2-14.2-7.6-25.3-21.4-58.8L102,271.3L119.1,264.3z"/>
	</g>
	<g>
		<path class="st12" d="M1639.9,427l65.9-223.4c6.8,3.8,12.7,8.7,17.9,14.8c4.8,5.8,8.6,12.2,11.5,19.2c2.9,6.7,4.4,13.8,4.6,21.2
			c0.3,7.5-0.7,15.1-2.9,22.5c-1.9,6.4-4.6,12.3-8.2,17.6c-3.7,5.5-8.4,10.7-14.1,15.8c6.8,19.4,7.7,37.5,2.7,54.4
			c-3.3,11.2-8.7,21.3-16.2,30.3c-7.5,8.7-16.7,15.5-27.4,20.2C1662.7,424.4,1651.4,426.9,1639.9,427z M1714.8,237.7l-18.8,63.6
			l6.2,1.8c8.3-7.8,13.9-16.4,16.7-25.8C1722.9,263.8,1721.5,250.6,1714.8,237.7z M1691,318.3l-25.2,85.6
			c17.3-8.3,28.6-21.6,34-39.8c2.3-7.7,3.2-14.9,2.9-21.5c-0.5-6.9-2.3-14.4-5.4-22.4L1691,318.3z"/>
		<path class="st12" d="M1900.5,316.9l-55.9,144.5c-4.2,10.8-8.8,17.9-13.9,21.4c-8.2,5.9-17.5,6.8-27.9,2.8
			c-11.4-4.4-17.7-12.1-18.9-23c-0.7-4.9,1-12.5,5-22.8l55.9-144.5c4.2-10.8,8.8-17.9,13.8-21.3c3.8-2.6,8.2-4.2,13.3-4.8
			c4.9-0.7,9.8-0.1,14.6,1.8c5.1,2,9.4,5,12.7,9.1c3.4,4.2,5.3,8.8,5.9,13.9C1905.8,299.6,1904.3,307.2,1900.5,316.9z M1862.8,301.1
			l-56.7,146.7c-2.4,6.3-3.3,11-2.7,14.3c0.4,3.4,2.5,5.9,6.4,7.3c3.8,1.5,7,1.2,9.5-0.8c2.4-2.1,4.9-6.3,7.4-12.8l56.7-146.7
			c2.5-6.6,3.6-11.4,3.2-14.6c-0.5-3.1-2.7-5.4-6.6-6.9c-3.8-1.5-7-1.2-9.5,0.8C1867.8,290.4,1865.3,294.6,1862.8,301.1z"/>
		<path class="st12" d="M1894.6,518.1c0-3.4,1.2-6.2,3.6-8.6c2.5-2.5,5.4-3.7,8.6-3.7c1.6,0,3.3,0.3,4.9,0.8
			c1.4,0.4,2.7,1.4,3.9,2.8c1.3,1.5,2.2,2.8,2.6,3.9c0.5,1.6,0.8,3.3,0.8,4.9c0,3.4-1.2,6.2-3.6,8.6c-2.4,2.4-5.3,3.6-8.6,3.6
			c-3.1,0-6-1.2-8.5-3.7C1895.8,524.1,1894.6,521.3,1894.6,518.1z"/>
		<path class="st12" d="M1744.3,395.9l-18.9,55.5l-17.3-5.9l73.8-216.8c9.4,9.2,16.7,19.6,22.1,31.2c5.2,11.6,8.1,23.7,8.7,36.3
			c0.5,12.5-1.4,25-5.6,37.4c-8.1,23.9-23.8,42.1-46.9,54.8c7.8,11.4,12.6,23.7,14.2,36.7c1.6,13,0,26.8-4.7,41.5l-17.3-5.9
			c3.8-11.5,5.1-22.8,3.8-34C1755,415.8,1751,405.6,1744.3,395.9z M1787.7,268.5l-35.5,104.3c18.2-9.6,30.7-24.5,37.6-44.6
			C1796.7,308,1796,288.1,1787.7,268.5z"/>
		<path class="st12" d="M1969.9,305.9l2.3,18.4c-23.2,3.4-38.3,13.2-45.3,29.4c-3,6.9-4.9,15.2-5.6,24.6l-4.2,49.7
			c-0.8,12.4-3.5,23.6-7.9,33.7c-5.2,11.9-13.4,21.7-24.6,29.4c-11.5,7.8-24.5,12.5-39,14.1l-3-18.7c24.3-3.9,40.8-15.6,49.3-35.1
			c3.1-7.1,5-14.9,5.6-23.4l4.1-48.8c0.7-7.2,1.5-13.2,2.4-17.7c1-4.8,2.5-9.6,4.7-14.4C1919.3,323,1939.7,309.3,1969.9,305.9z"/>
	</g>
</g>
</svg>
